<svg xmlns="http://www.w3.org/2000/svg" xmlns:xlink="http://www.w3.org/1999/xlink" xmlns:lucid="lucid" width="2894.74" height="1261.25"><g transform="translate(190.70572916994095 103.92141276041663)" lucid:page-tab-id="0_0"><path d="M-189.7-49.67a6 6 0 0 1 6-6h2880.74a6 6 0 0 1 6 6v1200a6 6 0 0 1-6 6H-183.7a6 6 0 0 1-6-6z" stroke="#3a414a" stroke-width="2" fill="#fff"/><path d="M-189.7-97.92a6 6 0 0 1 6-6H89.25a6 6 0 0 1 6 6v24.25a6 6 0 0 1-6 6H-183.7a6 6 0 0 1-6-6z" fill="#3a414a"/><use xlink:href="#a" transform="matrix(1,0,0,1,-181.70572916666674,-95.92141276041663) translate(0 16.589501953125)"/><use xlink:href="#b" transform="matrix(1,0,0,1,-181.70572916666674,-95.92141276041663) translate(108.654697265625 16.589501953125)"/><use xlink:href="#c" transform="matrix(1,0,0,1,-181.70572916666674,-95.92141276041663) translate(172.08360351562501 16.589501953125)"/><path d="M-109.7 939.83a12 12 0 0 1 12-12h300a12 12 0 0 1 12 12v90a12 12 0 0 1-12 12h-300a12 12 0 0 1-12-12z" fill="#fff0fb"/><path d="M-109.7 967.83h324v38h-324z" fill="#fff0fb"/><path d="M-109.7 1004.83h324v25a12 12 0 0 1-12 12h-300a12 12 0 0 1-12-12z" fill="#fff0fb"/><path d="M-108.7 967.83h322-322zM-109.7 939.83a12 12 0 0 1 12-12h300a12 12 0 0 1 12 12v90a12 12 0 0 1-12 12h-300a12 12 0 0 1-12-12zM52.3 968.83v72z" stroke="#ff80df" stroke-width="2" fill="none"/><use xlink:href="#d" transform="matrix(1,0,0,1,-99.70572916666674,927.8333333333334) translate(112.39496527777777 28.08376736111111)"/><use xlink:href="#e" transform="matrix(1,0,0,1,-104.70572916666674,970.3333333333334) translate(0 24.08376736111111)"/><use xlink:href="#f" transform="matrix(1,0,0,1,57.29427083333326,970.3333333333334) translate(0 24.08376736111111)"/><use xlink:href="#g" transform="matrix(1,0,0,1,-104.70572916666674,1007.3333333333334) translate(0 24.08376736111111)"/><use xlink:href="#f" transform="matrix(1,0,0,1,57.29427083333326,1007.3333333333334) translate(0 24.08376736111111)"/><path d="M514.3 905.33a12 12 0 0 1 12-12h412a12 12 0 0 1 12 12v159a12 12 0 0 1-12 12h-412a12 12 0 0 1-12-12z" fill="#fff0fb"/><path d="M514.3 933.33h436v70h-436z" fill="#fff0fb"/><path d="M514.3 1002.33h436v38h-436z" fill="#fff0fb"/><path d="M514.3 1039.33h436v25a12 12 0 0 1-12 12h-412a12 12 0 0 1-12-12z" fill="#fff0fb"/><path d="M515.3 933.33h434-434zM514.3 905.33a12 12 0 0 1 12-12h412a12 12 0 0 1 12 12v159a12 12 0 0 1-12 12h-412a12 12 0 0 1-12-12zM732.3 934.33v141z" stroke="#ff80df" stroke-width="2" fill="none"/><use xlink:href="#h" transform="matrix(1,0,0,1,524.2942708333333,893.3333333333334) translate(179.89670138888889 28.08376736111111)"/><use xlink:href="#i" transform="matrix(1,0,0,1,519.2942708333333,935.8333333333334) translate(0 23.95095486111111)"/><use xlink:href="#j" transform="matrix(1,0,0,1,519.2942708333333,935.8333333333334) translate(0 56.21657986111111)"/><use xlink:href="#f" transform="matrix(1,0,0,1,737.2942708333333,935.8333333333334) translate(0 40.083767361111114)"/><use xlink:href="#k" transform="matrix(1,0,0,1,519.2942708333333,1004.8333333333334) translate(0 24.08376736111111)"/><use xlink:href="#l" transform="matrix(1,0,0,1,737.2942708333333,1004.8333333333334) translate(0 24.08376736111111)"/><use xlink:href="#m" transform="matrix(1,0,0,1,519.2942708333333,1041.8333333333335) translate(0 24.08376736111111)"/><use xlink:href="#f" transform="matrix(1,0,0,1,737.2942708333333,1041.8333333333335) translate(0 24.08376736111111)"/><path d="M1301.3 921.33a12 12 0 0 1 12-12h512a12 12 0 0 1 12 12v127a12 12 0 0 1-12 12h-512a12 12 0 0 1-12-12z" fill="#fff0fb"/><path d="M1301.3 949.33h536v38h-536z" fill="#fff0fb"/><path d="M1301.3 986.33h536v38h-536z" fill="#fff0fb"/><path d="M1301.3 1023.33h536v25a12 12 0 0 1-12 12h-512a12 12 0 0 1-12-12z" fill="#fff0fb"/><path d="M1302.3 949.33h534-534zM1301.3 921.33a12 12 0 0 1 12-12h512a12 12 0 0 1 12 12v127a12 12 0 0 1-12 12h-512a12 12 0 0 1-12-12zM1569.3 950.33v109z" stroke="#ff80df" stroke-width="2" fill="none"/><use xlink:href="#n" transform="matrix(1,0,0,1,1311.2942708333333,909.3333333333334) translate(147.54535590277777 28.08376736111111)"/><use xlink:href="#o" transform="matrix(1,0,0,1,1306.2942708333333,951.8333333333334) translate(0 24.08376736111111)"/><use xlink:href="#p" transform="matrix(1,0,0,1,1306.2942708333333,951.8333333333334) translate(78.63498263888889 24.08376736111111)"/><use xlink:href="#f" transform="matrix(1,0,0,1,1574.2942708333333,951.8333333333334) translate(0 24.08376736111111)"/><use xlink:href="#q" transform="matrix(1,0,0,1,1306.2942708333333,988.8333333333334) translate(0 24.08376736111111)"/><use xlink:href="#f" transform="matrix(1,0,0,1,1574.2942708333333,988.8333333333334) translate(0 24.08376736111111)"/><use xlink:href="#r" transform="matrix(1,0,0,1,1306.2942708333333,1025.8333333333335) translate(0 24.08376736111111)"/><use xlink:href="#f" transform="matrix(1,0,0,1,1574.2942708333333,1025.8333333333335) translate(0 24.08376736111111)"/><path d="M2188.3 433.83a12 12 0 0 1 12-12h410.74a12 12 0 0 1 12 12v164a12 12 0 0 1-12 12H2200.3a12 12 0 0 1-12-12z" fill="#fff0fb"/><path d="M2188.3 461.83h434.74v38H2188.3z" fill="#fff0fb"/><path d="M2188.3 498.83h434.74v38H2188.3z" fill="#fff0fb"/><path d="M2188.3 535.83h434.74v38H2188.3z" fill="#fff0fb"/><path d="M2188.3 572.83h434.74v25a12 12 0 0 1-12 12H2200.3a12 12 0 0 1-12-12z" fill="#fff0fb"/><path d="M2189.3 461.83h432.74-432.75zM2188.3 433.83a12 12 0 0 1 12-12h410.74a12 12 0 0 1 12 12v164a12 12 0 0 1-12 12H2200.3a12 12 0 0 1-12-12zM2405.67 462.83v146z" stroke="#ff80df" stroke-width="2" fill="none"/><use xlink:href="#s" transform="matrix(1,0,0,1,2198.294270833333,421.83333333333337) translate(109.12760416666669 28.08376736111111)"/><use xlink:href="#t" transform="matrix(1,0,0,1,2193.294270833333,464.33333333333337) translate(0 24.08376736111111)"/><use xlink:href="#f" transform="matrix(1,0,0,1,2410.6666666666665,464.33333333333337) translate(0 24.08376736111111)"/><use xlink:href="#u" transform="matrix(1,0,0,1,2193.294270833333,501.33333333333337) translate(0 24.08376736111111)"/><use xlink:href="#f" transform="matrix(1,0,0,1,2410.6666666666665,501.33333333333337) translate(0 24.08376736111111)"/><use xlink:href="#v" transform="matrix(1,0,0,1,2193.294270833333,538.3333333333334) translate(0 24.08376736111111)"/><use xlink:href="#w" transform="matrix(1,0,0,1,2410.6666666666665,538.3333333333334) translate(0 24.08376736111111)"/><use xlink:href="#x" transform="matrix(1,0,0,1,2193.294270833333,575.3333333333334) translate(0 24.08376736111111)"/><use xlink:href="#f" transform="matrix(1,0,0,1,2410.6666666666665,575.3333333333334) translate(0 24.08376736111111)"/><path d="M1250.3 452.33a12 12 0 0 1 12-12h614a12 12 0 0 1 12 12v127a12 12 0 0 1-12 12h-614a12 12 0 0 1-12-12z" fill="#fff0fb"/><path d="M1250.3 480.33h638v38h-638z" fill="#fff0fb"/><path d="M1250.3 517.33h638v38h-638z" fill="#fff0fb"/><path d="M1250.3 554.33h638v25a12 12 0 0 1-12 12h-614a12 12 0 0 1-12-12z" fill="#fff0fb"/><path d="M1251.3 480.33h636-636zM1250.3 452.33a12 12 0 0 1 12-12h614a12 12 0 0 1 12 12v127a12 12 0 0 1-12 12h-614a12 12 0 0 1-12-12zM1569.3 481.33v109z" stroke="#ff80df" stroke-width="2" fill="none"/><use xlink:href="#y" transform="matrix(1,0,0,1,1260.2942708333333,440.33333333333337) translate(150.41710069444443 28.08376736111111)"/><use xlink:href="#z" transform="matrix(1,0,0,1,1255.2942708333333,482.83333333333337) translate(0 24.08376736111111)"/><use xlink:href="#f" transform="matrix(1,0,0,1,1574.2942708333333,482.83333333333337) translate(0 24.08376736111111)"/><use xlink:href="#A" transform="matrix(1,0,0,1,1255.2942708333333,519.8333333333334) translate(0 24.08376736111111)"/><use xlink:href="#f" transform="matrix(1,0,0,1,1574.2942708333333,519.8333333333334) translate(0 24.08376736111111)"/><use xlink:href="#B" transform="matrix(1,0,0,1,1255.2942708333333,556.8333333333334) translate(0 24.08376736111111)"/><use xlink:href="#l" transform="matrix(1,0,0,1,1574.2942708333333,556.8333333333334) translate(0 24.08376736111111)"/><path d="M1407.3 36.33a12 12 0 0 1 12-12h300a12 12 0 0 1 12 12v90a12 12 0 0 1-12 12h-300a12 12 0 0 1-12-12z" fill="#fff0fb"/><path d="M1407.3 64.33h324v38h-324z" fill="#fff0fb"/><path d="M1407.3 101.33h324v25a12 12 0 0 1-12 12h-300a12 12 0 0 1-12-12z" fill="#fff0fb"/><path d="M1408.3 64.33h322-322zM1407.3 36.33a12 12 0 0 1 12-12h300a12 12 0 0 1 12 12v90a12 12 0 0 1-12 12h-300a12 12 0 0 1-12-12zM1569.3 65.33v72z" stroke="#ff80df" stroke-width="2" fill="none"/><use xlink:href="#C" transform="matrix(1,0,0,1,1417.2942708333333,24.33333333333337) translate(105.24978298611111 28.08376736111111)"/><use xlink:href="#D" transform="matrix(1,0,0,1,1412.2942708333333,66.83333333333337) translate(0 24.08376736111111)"/><use xlink:href="#f" transform="matrix(1,0,0,1,1574.2942708333333,66.83333333333337) translate(0 24.08376736111111)"/><use xlink:href="#E" transform="matrix(1,0,0,1,1412.2942708333333,103.83333333333337) translate(0 24.08376736111111)"/><use xlink:href="#f" transform="matrix(1,0,0,1,1574.2942708333333,103.83333333333337) translate(0 24.08376736111111)"/><path d="M326.84 986.3H235.3v-.94h91.54zm146.45 0h-71.55v-.94h71.54z" stroke="#3a414a" stroke-width=".05" fill="#3a414a"/><path d="M235.77 995.84h-.95v-9.53h-9.05v9.54h-.95v-9.53l-9.53.02v-.96h9.52v-9.52h.95v9.52h9.05v-9.52h.95z" stroke="#3a414a" stroke-width=".05" fill="#3a414a"/><path d="M486.23 976.35l2.75 1.42 2.16 2.16 1.42 2.75.5 3.16-.5 3.16-1.42 2.74-2.16 2.17-2.75 1.43-3.16.5-3.16-.5-2.73-1.42-2.17-2.16-1.42-2.74-.5-3.16.5-3.16 1.42-2.75 2.17-2.16 2.74-1.42 3.17-.5zm26.84 19.5l-20-10m20-10l-20 10m20 0h-20" fill="#fff"/><path d="M486.38 975.9l2.88 1.48 2.27 2.27 1.5 2.88.4 2.6 19.43-9.72.42.86-18.2 9.1h18v.95h-18l18.2 9.1-.42.86-19.42-9.7-.42 2.6-1.5 2.87-2.26 2.27-2.88 1.5-3.3.52-3.32-.54-2.88-1.48-2.27-2.27-1.48-2.88-.53-3.3.52-3.32 1.5-2.88 2.26-2.27 2.88-1.5 3.3-.52zm-6.32.9l-2.6 1.36-2.07 2.06-1.36 2.6-.5 3.02.5 3 1.35 2.62 2.05 2.06 2.6 1.35 3.02.5 3-.5 2.62-1.35 2.05-2.06 1.35-2.6.5-3.02-.5-3-1.35-2.62-2.06-2.06-2.62-1.36-3-.48z" stroke="#3a414a" stroke-width=".05" fill="#3a414a"/><use xlink:href="#F" transform="matrix(1,0,0,1,326.83767361111103,975.0835049977347) translate(0 17.22222222222222)"/><path d="M1255.3 985.44l1 .24.93.4.87.52.77.66.66.77.54.87.38.94.24 1 .07.98v7l.07.88.2.84.33.8.46.74.56.66.65.56.74.46.8.33.83.2.88.06h14v.95h-14.02l-1-.07-1-.24-.93-.4-.86-.53-.8-.66-.64-.76-.54-.87-.38-.93-.24-1-.08-1v-6.98l-.07-.9-.2-.83-.33-.8-.46-.74-.56-.67-.66-.56-.74-.45-.8-.33-.84-.22-.88-.07h-59.66v-.94h59.7zm-284 .87v-.94h104.67v.95z" stroke="#3a414a" stroke-width=".05" fill="#3a414a"/><path d="M961.77 985.36h9.05v-9.52h.95v20h-.95v-9.53h-9.05v9.54h-.95v-9.53h-9.53v-.94h9.52v-9.52h.95zM1280.77 1004.36h9.05v-9.53h.95v9.53h9.52v.95h-9.53v9.53h-.95v-9.52h-9.05v9.53h-.95v-20h.95z" stroke="#3a414a" stroke-width=".05" fill="#3a414a"/><use xlink:href="#G" transform="matrix(1,0,0,1,1075.969060588685,975.0827121559633) translate(0 17.22222222222222)"/><path d="M2088.77 998.85l-.08 1-.25 1-.38.92-.54.87-.66.77-.77.67-.86.53-.94.4-1 .23-1 .08h-204v-.94h203.98l.88-.07.84-.2.8-.35.74-.45.66-.56.56-.66.46-.74.33-.8.2-.84.07-.88V870.95h.95zm78.52-433.82h-73l-.87.07-.84.2-.8.34-.75.45-.66.55-.57.66-.46.75-.33.8-.2.84-.07.88v278.86h-.95v-278.9l.08-1 .24-1 .38-.92.53-.87.66-.77.8-.66.85-.53.94-.4.98-.24 1-.08h73z" stroke="#3a414a" stroke-width=".05" fill="#3a414a"/><path d="M1871.68 995.34l2.74 1.42 2.17 2.17 1.4 2.74.52 3.16-.5 3.16-1.43 2.74-2.18 2.16-2.74 1.42-3.16.5-3.16-.5-2.75-1.42-2.15-2.16-1.42-2.75-.5-3.17.5-3.16 1.42-2.74 2.16-2.17 2.76-1.42 3.16-.5zm-33.16 19.5l20-10m-20-10l20 10m0 0h-20" fill="#fff"/><path d="M1871.83 994.9l2.88 1.48 2.28 2.26 1.48 2.88.54 3.3-.54 3.32-1.48 2.88-2.27 2.27-2.87 1.48-3.3.53-3.32-.52-2.87-1.5-2.27-2.26-1.5-2.88-.4-2.6-19.43 9.72-.42-.85 18.2-9.1h-17.98v-.94h18l-18.2-9.1.4-.85 19.43 9.72.42-2.6 1.5-2.88 2.26-2.26 2.88-1.5 3.32-.53zm-6.32.9l-2.6 1.35-2.07 2.06-1.35 2.62-.48 3 .48 3.02 1.36 2.62 2.06 2.06 2.6 1.35 3.02.48 3-.48 2.62-1.35 2.06-2.06 1.35-2.62.5-3-.5-3.02-1.35-2.6-2.06-2.07-2.6-1.35-3.02-.5zM2167.77 564.08h9.05v-9.52h.95v9.52h9.52v.95h-9.53v9.53h-.95v-9.53h-9.05v9.53h-.95v-20h.95z" stroke="#3a414a" stroke-width=".05" fill="#3a414a"/><use xlink:href="#H" transform="matrix(1,0,0,1,1967.395833333333,849.4396847033698) translate(0 17.22222222222222)"/><path d="M2147.3 516.36v.95h-27.96v-.94zm-190.06 0v.95h-47.95v-.94z" stroke="#3a414a" stroke-width=".05" fill="#3a414a"/><path d="M1899.77 506.84v9.52h9.05v-9.52h.95v20h-.95v-9.53h-9.05v9.54h-.95v-9.53h-9.53v-.94h9.52v-9.52z" stroke="#3a414a" stroke-width=".05" fill="#3a414a"/><path d="M2160.23 507.35l2.75 1.42 2.16 2.16 1.42 2.75.5 3.16-.5 3.16-1.42 2.74-2.16 2.17-2.75 1.43-3.16.5-3.16-.5-2.74-1.42-2.16-2.16-1.42-2.74-.5-3.16.5-3.16 1.42-2.75 2.16-2.16 2.75-1.42 3.17-.5zm26.84 19.5l-20-10m20 0h-20m20-10l-20 10" fill="#fff"/><path d="M2160.38 506.9l2.88 1.48 2.27 2.27 1.5 2.88.4 2.6 19.43-9.72.42.86-18.2 9.1h18v.95h-18l18.2 9.1-.42.86-19.42-9.7-.42 2.6-1.5 2.87-2.26 2.27-2.88 1.5-3.3.52-3.32-.54-2.88-1.48-2.27-2.27-1.48-2.88-.53-3.3.52-3.32 1.5-2.88 2.26-2.27 2.88-1.5 3.3-.52zm-6.32.9l-2.6 1.35-2.07 2.07-1.36 2.6-.5 3.02.5 3 1.35 2.62 2.05 2.06 2.6 1.35 3.02.5 3-.5 2.62-1.35 2.05-2.06 1.35-2.6.5-3.02-.5-3-1.35-2.62-2.06-2.07-2.62-1.35-3-.48z" stroke="#3a414a" stroke-width=".05" fill="#3a414a"/><use xlink:href="#I" transform="matrix(1,0,0,1,1957.2439236111109,506.0819925981886) translate(0 17.22222222222222)"/><path d="M1988.77 463.1l.07.88.2.85.33.8.46.74.56.65.65.57.74.44.8.33.83.2.88.07h153v.95h-153.02l-1-.08-1-.24-.93-.4-.86-.52-.8-.66-.64-.77-.54-.87-.38-.94-.24-1-.08-.98V258h.95zm-5.46-381.16l1 .24.93.4.87.52.77.66.66.77.54.87.38.94.24 1 .07.98v148.15h-.95V88.37l-.07-.9-.2-.84-.33-.8-.46-.74-.56-.67-.66-.56-.74-.45-.8-.33-.84-.22-.88-.06h-230v-.95h230.03z" stroke="#3a414a" stroke-width=".05" fill="#3a414a"/><path d="M1742.77 81.86h9.05v-9.52h.95v20h-.95V82.8l-9.05.02v9.52h-.95V82.8l-9.53.02v-.95h9.52v-9.53h.95z" stroke="#3a414a" stroke-width=".05" fill="#3a414a"/><path d="M2160.23 459.63l2.75 1.42 2.16 2.16 1.42 2.76.5 3.16-.5 3.16-1.42 2.75-2.16 2.16-2.75 1.4-3.16.52-3.16-.5-2.74-1.43L2149 475l-1.42-2.74-.5-3.16.5-3.16 1.42-2.75 2.16-2.15 2.75-1.42 3.17-.5zm26.84 19.5l-20-10m20-10l-20 10m0 0h20" fill="#fff"/><path d="M2160.38 459.17l2.88 1.5 2.27 2.26 1.5 2.88.4 2.6 19.43-9.7.42.84-18.2 9.1h18v.95h-18l18.2 9.1-.42.84-19.42-9.7-.42 2.6-1.5 2.87-2.26 2.28-2.88 1.5-3.3.52-3.32-.53-2.88-1.5-2.27-2.26-1.48-2.87-.53-3.3.52-3.32 1.5-2.87 2.26-2.27 2.88-1.5 3.3-.52zm-6.32.92l-2.6 1.34-2.07 2.06-1.36 2.6-.5 3.02.5 3 1.35 2.62 2.05 2.06 2.6 1.35 3.02.5 3-.5 2.62-1.35 2.05-2.06 1.35-2.6.5-3.02-.5-3-1.35-2.62-2.06-2.06-2.62-1.35-3-.5z" stroke="#3a414a" stroke-width=".05" fill="#3a414a"/><use xlink:href="#J" transform="matrix(1,0,0,1,1920.3125,236.4742521165219) translate(0 17.22222222222222)"/><path d="M-189.7-49.67a6 6 0 0 1 6-6h2880.74a6 6 0 0 1 6 6v1200a6 6 0 0 1-6 6H-183.7a6 6 0 0 1-6-6z" stroke="#3a414a" stroke-width="2" fill="#fff"/><path d="M-189.7-97.92a6 6 0 0 1 6-6H89.25a6 6 0 0 1 6 6v24.25a6 6 0 0 1-6 6H-183.7a6 6 0 0 1-6-6z" fill="#3a414a"/><use xlink:href="#a" transform="matrix(1,0,0,1,-181.70572916666674,-95.92141276041663) translate(0 16.589501953125)"/><use xlink:href="#b" transform="matrix(1,0,0,1,-181.70572916666674,-95.92141276041663) translate(108.654697265625 16.589501953125)"/><use xlink:href="#c" transform="matrix(1,0,0,1,-181.70572916666674,-95.92141276041663) translate(172.08360351562501 16.589501953125)"/><path d="M-109.7 939.83a12 12 0 0 1 12-12h300a12 12 0 0 1 12 12v90a12 12 0 0 1-12 12h-300a12 12 0 0 1-12-12z" fill="#fff0fb"/><path d="M-109.7 967.83h324v38h-324z" fill="#fff0fb"/><path d="M-109.7 1004.83h324v25a12 12 0 0 1-12 12h-300a12 12 0 0 1-12-12z" fill="#fff0fb"/><path d="M-108.7 967.83h322-322zM-109.7 939.83a12 12 0 0 1 12-12h300a12 12 0 0 1 12 12v90a12 12 0 0 1-12 12h-300a12 12 0 0 1-12-12zM52.3 968.83v72z" stroke="#ff80df" stroke-width="2" fill="none"/><use xlink:href="#d" transform="matrix(1,0,0,1,-99.70572916666674,927.8333333333334) translate(112.39496527777777 28.08376736111111)"/><use xlink:href="#e" transform="matrix(1,0,0,1,-104.70572916666674,970.3333333333334) translate(0 24.08376736111111)"/><use xlink:href="#f" transform="matrix(1,0,0,1,57.29427083333326,970.3333333333334) translate(0 24.08376736111111)"/><use xlink:href="#g" transform="matrix(1,0,0,1,-104.70572916666674,1007.3333333333334) translate(0 24.08376736111111)"/><use xlink:href="#f" transform="matrix(1,0,0,1,57.29427083333326,1007.3333333333334) translate(0 24.08376736111111)"/><path d="M514.3 905.33a12 12 0 0 1 12-12h412a12 12 0 0 1 12 12v159a12 12 0 0 1-12 12h-412a12 12 0 0 1-12-12z" fill="#fff0fb"/><path d="M514.3 933.33h436v70h-436z" fill="#fff0fb"/><path d="M514.3 1002.33h436v38h-436z" fill="#fff0fb"/><path d="M514.3 1039.33h436v25a12 12 0 0 1-12 12h-412a12 12 0 0 1-12-12z" fill="#fff0fb"/><path d="M515.3 933.33h434-434zM514.3 905.33a12 12 0 0 1 12-12h412a12 12 0 0 1 12 12v159a12 12 0 0 1-12 12h-412a12 12 0 0 1-12-12zM732.3 934.33v141z" stroke="#ff80df" stroke-width="2" fill="none"/><use xlink:href="#h" transform="matrix(1,0,0,1,524.2942708333333,893.3333333333334) translate(179.89670138888889 28.08376736111111)"/><use xlink:href="#i" transform="matrix(1,0,0,1,519.2942708333333,935.8333333333334) translate(0 23.95095486111111)"/><use xlink:href="#j" transform="matrix(1,0,0,1,519.2942708333333,935.8333333333334) translate(0 56.21657986111111)"/><use xlink:href="#f" transform="matrix(1,0,0,1,737.2942708333333,935.8333333333334) translate(0 40.083767361111114)"/><use xlink:href="#k" transform="matrix(1,0,0,1,519.2942708333333,1004.8333333333334) translate(0 24.08376736111111)"/><use xlink:href="#l" transform="matrix(1,0,0,1,737.2942708333333,1004.8333333333334) translate(0 24.08376736111111)"/><use xlink:href="#m" transform="matrix(1,0,0,1,519.2942708333333,1041.8333333333335) translate(0 24.08376736111111)"/><use xlink:href="#f" transform="matrix(1,0,0,1,737.2942708333333,1041.8333333333335) translate(0 24.08376736111111)"/><path d="M1301.3 921.33a12 12 0 0 1 12-12h512a12 12 0 0 1 12 12v127a12 12 0 0 1-12 12h-512a12 12 0 0 1-12-12z" fill="#fff0fb"/><path d="M1301.3 949.33h536v38h-536z" fill="#fff0fb"/><path d="M1301.3 986.33h536v38h-536z" fill="#fff0fb"/><path d="M1301.3 1023.33h536v25a12 12 0 0 1-12 12h-512a12 12 0 0 1-12-12z" fill="#fff0fb"/><path d="M1302.3 949.33h534-534zM1301.3 921.33a12 12 0 0 1 12-12h512a12 12 0 0 1 12 12v127a12 12 0 0 1-12 12h-512a12 12 0 0 1-12-12zM1569.3 950.33v109z" stroke="#ff80df" stroke-width="2" fill="none"/><use xlink:href="#n" transform="matrix(1,0,0,1,1311.2942708333333,909.3333333333334) translate(147.54535590277777 28.08376736111111)"/><use xlink:href="#o" transform="matrix(1,0,0,1,1306.2942708333333,951.8333333333334) translate(0 24.08376736111111)"/><use xlink:href="#p" transform="matrix(1,0,0,1,1306.2942708333333,951.8333333333334) translate(78.63498263888889 24.08376736111111)"/><use xlink:href="#f" transform="matrix(1,0,0,1,1574.2942708333333,951.8333333333334) translate(0 24.08376736111111)"/><use xlink:href="#q" transform="matrix(1,0,0,1,1306.2942708333333,988.8333333333334) translate(0 24.08376736111111)"/><use xlink:href="#f" transform="matrix(1,0,0,1,1574.2942708333333,988.8333333333334) translate(0 24.08376736111111)"/><use xlink:href="#r" transform="matrix(1,0,0,1,1306.2942708333333,1025.8333333333335) translate(0 24.08376736111111)"/><use xlink:href="#f" transform="matrix(1,0,0,1,1574.2942708333333,1025.8333333333335) translate(0 24.08376736111111)"/><path d="M2188.3 433.83a12 12 0 0 1 12-12h410.74a12 12 0 0 1 12 12v164a12 12 0 0 1-12 12H2200.3a12 12 0 0 1-12-12z" fill="#fff0fb"/><path d="M2188.3 461.83h434.74v38H2188.3z" fill="#fff0fb"/><path d="M2188.3 498.83h434.74v38H2188.3z" fill="#fff0fb"/><path d="M2188.3 535.83h434.74v38H2188.3z" fill="#fff0fb"/><path d="M2188.3 572.83h434.74v25a12 12 0 0 1-12 12H2200.3a12 12 0 0 1-12-12z" fill="#fff0fb"/><path d="M2189.3 461.83h432.74-432.75zM2188.3 433.83a12 12 0 0 1 12-12h410.74a12 12 0 0 1 12 12v164a12 12 0 0 1-12 12H2200.3a12 12 0 0 1-12-12zM2405.67 462.83v146z" stroke="#ff80df" stroke-width="2" fill="none"/><use xlink:href="#s" transform="matrix(1,0,0,1,2198.294270833333,421.83333333333337) translate(109.12760416666669 28.08376736111111)"/><use xlink:href="#t" transform="matrix(1,0,0,1,2193.294270833333,464.33333333333337) translate(0 24.08376736111111)"/><use xlink:href="#f" transform="matrix(1,0,0,1,2410.6666666666665,464.33333333333337) translate(0 24.08376736111111)"/><use xlink:href="#u" transform="matrix(1,0,0,1,2193.294270833333,501.33333333333337) translate(0 24.08376736111111)"/><use xlink:href="#f" transform="matrix(1,0,0,1,2410.6666666666665,501.33333333333337) translate(0 24.08376736111111)"/><use xlink:href="#v" transform="matrix(1,0,0,1,2193.294270833333,538.3333333333334) translate(0 24.08376736111111)"/><use xlink:href="#w" transform="matrix(1,0,0,1,2410.6666666666665,538.3333333333334) translate(0 24.08376736111111)"/><use xlink:href="#x" transform="matrix(1,0,0,1,2193.294270833333,575.3333333333334) translate(0 24.08376736111111)"/><use xlink:href="#f" transform="matrix(1,0,0,1,2410.6666666666665,575.3333333333334) translate(0 24.08376736111111)"/><path d="M1250.3 452.33a12 12 0 0 1 12-12h614a12 12 0 0 1 12 12v127a12 12 0 0 1-12 12h-614a12 12 0 0 1-12-12z" fill="#fff0fb"/><path d="M1250.3 480.33h638v38h-638z" fill="#fff0fb"/><path d="M1250.3 517.33h638v38h-638z" fill="#fff0fb"/><path d="M1250.3 554.33h638v25a12 12 0 0 1-12 12h-614a12 12 0 0 1-12-12z" fill="#fff0fb"/><path d="M1251.3 480.33h636-636zM1250.3 452.33a12 12 0 0 1 12-12h614a12 12 0 0 1 12 12v127a12 12 0 0 1-12 12h-614a12 12 0 0 1-12-12zM1569.3 481.33v109z" stroke="#ff80df" stroke-width="2" fill="none"/><use xlink:href="#y" transform="matrix(1,0,0,1,1260.2942708333333,440.33333333333337) translate(150.41710069444443 28.08376736111111)"/><use xlink:href="#z" transform="matrix(1,0,0,1,1255.2942708333333,482.83333333333337) translate(0 24.08376736111111)"/><use xlink:href="#f" transform="matrix(1,0,0,1,1574.2942708333333,482.83333333333337) translate(0 24.08376736111111)"/><use xlink:href="#A" transform="matrix(1,0,0,1,1255.2942708333333,519.8333333333334) translate(0 24.08376736111111)"/><use xlink:href="#f" transform="matrix(1,0,0,1,1574.2942708333333,519.8333333333334) translate(0 24.08376736111111)"/><use xlink:href="#B" transform="matrix(1,0,0,1,1255.2942708333333,556.8333333333334) translate(0 24.08376736111111)"/><use xlink:href="#l" transform="matrix(1,0,0,1,1574.2942708333333,556.8333333333334) translate(0 24.08376736111111)"/><path d="M1407.3 36.33a12 12 0 0 1 12-12h300a12 12 0 0 1 12 12v90a12 12 0 0 1-12 12h-300a12 12 0 0 1-12-12z" fill="#fff0fb"/><path d="M1407.3 64.33h324v38h-324z" fill="#fff0fb"/><path d="M1407.3 101.33h324v25a12 12 0 0 1-12 12h-300a12 12 0 0 1-12-12z" fill="#fff0fb"/><path d="M1408.3 64.33h322-322zM1407.3 36.33a12 12 0 0 1 12-12h300a12 12 0 0 1 12 12v90a12 12 0 0 1-12 12h-300a12 12 0 0 1-12-12zM1569.3 65.33v72z" stroke="#ff80df" stroke-width="2" fill="none"/><use xlink:href="#C" transform="matrix(1,0,0,1,1417.2942708333333,24.33333333333337) translate(105.24978298611111 28.08376736111111)"/><use xlink:href="#D" transform="matrix(1,0,0,1,1412.2942708333333,66.83333333333337) translate(0 24.08376736111111)"/><use xlink:href="#f" transform="matrix(1,0,0,1,1574.2942708333333,66.83333333333337) translate(0 24.08376736111111)"/><use xlink:href="#E" transform="matrix(1,0,0,1,1412.2942708333333,103.83333333333337) translate(0 24.08376736111111)"/><use xlink:href="#f" transform="matrix(1,0,0,1,1574.2942708333333,103.83333333333337) translate(0 24.08376736111111)"/><path d="M326.84 986.3H235.3v-.94h91.54zm146.45 0h-71.55v-.94h71.54z" stroke="#3a414a" stroke-width=".05" fill="#3a414a"/><path d="M235.77 995.84h-.95v-9.53h-9.05v9.54h-.95v-9.53l-9.53.02v-.96h9.52v-9.52h.95v9.52h9.05v-9.52h.95z" stroke="#3a414a" stroke-width=".05" fill="#3a414a"/><path d="M486.23 976.35l2.75 1.42 2.16 2.16 1.42 2.75.5 3.16-.5 3.16-1.42 2.74-2.16 2.17-2.75 1.43-3.16.5-3.16-.5-2.73-1.42-2.17-2.16-1.42-2.74-.5-3.16.5-3.16 1.42-2.75 2.17-2.16 2.74-1.42 3.17-.5zm26.84 19.5l-20-10m20-10l-20 10m20 0h-20" fill="#fff"/><path d="M486.38 975.9l2.88 1.48 2.27 2.27 1.5 2.88.4 2.6 19.43-9.72.42.86-18.2 9.1h18v.95h-18l18.2 9.1-.42.86-19.42-9.7-.42 2.6-1.5 2.87-2.26 2.27-2.88 1.5-3.3.52-3.32-.54-2.88-1.48-2.27-2.27-1.48-2.88-.53-3.3.52-3.32 1.5-2.88 2.26-2.27 2.88-1.5 3.3-.52zm-6.32.9l-2.6 1.36-2.07 2.06-1.36 2.6-.5 3.02.5 3 1.35 2.62 2.05 2.06 2.6 1.35 3.02.5 3-.5 2.62-1.35 2.05-2.06 1.35-2.6.5-3.02-.5-3-1.35-2.62-2.06-2.06-2.62-1.36-3-.48z" stroke="#3a414a" stroke-width=".05" fill="#3a414a"/><use xlink:href="#F" transform="matrix(1,0,0,1,326.83767361111103,975.0835049977347) translate(0 17.22222222222222)"/><path d="M1255.3 985.44l1 .24.93.4.87.52.77.66.66.77.54.87.38.94.24 1 .07.98v7l.07.88.2.84.33.8.46.74.56.66.65.56.74.46.8.33.83.2.88.06h14v.95h-14.02l-1-.07-1-.24-.93-.4-.86-.53-.8-.66-.64-.76-.54-.87-.38-.93-.24-1-.08-1v-6.98l-.07-.9-.2-.83-.33-.8-.46-.74-.56-.67-.66-.56-.74-.45-.8-.33-.84-.22-.88-.07h-59.66v-.94h59.7zm-284 .87v-.94h104.67v.95z" stroke="#3a414a" stroke-width=".05" fill="#3a414a"/><path d="M961.77 985.36h9.05v-9.52h.95v20h-.95v-9.53h-9.05v9.54h-.95v-9.53h-9.53v-.94h9.52v-9.52h.95zM1280.77 1004.36h9.05v-9.53h.95v9.53h9.52v.95h-9.53v9.53h-.95v-9.52h-9.05v9.53h-.95v-20h.95z" stroke="#3a414a" stroke-width=".05" fill="#3a414a"/><use xlink:href="#G" transform="matrix(1,0,0,1,1075.969060588685,975.0827121559633) translate(0 17.22222222222222)"/><path d="M2088.77 998.85l-.08 1-.25 1-.38.92-.54.87-.66.77-.77.67-.86.53-.94.4-1 .23-1 .08h-204v-.94h203.98l.88-.07.84-.2.8-.35.74-.45.66-.56.56-.66.46-.74.33-.8.2-.84.07-.88V870.95h.95zm78.52-433.82h-73l-.87.07-.84.2-.8.34-.75.45-.66.55-.57.66-.46.75-.33.8-.2.84-.07.88v278.86h-.95v-278.9l.08-1 .24-1 .38-.92.53-.87.66-.77.8-.66.85-.53.94-.4.98-.24 1-.08h73z" stroke="#3a414a" stroke-width=".05" fill="#3a414a"/><path d="M1871.68 995.34l2.74 1.42 2.17 2.17 1.4 2.74.52 3.16-.5 3.16-1.43 2.74-2.18 2.16-2.74 1.42-3.16.5-3.16-.5-2.75-1.42-2.15-2.16-1.42-2.75-.5-3.17.5-3.16 1.42-2.74 2.16-2.17 2.76-1.42 3.16-.5zm-33.16 19.5l20-10m-20-10l20 10m0 0h-20" fill="#fff"/><path d="M1871.83 994.9l2.88 1.48 2.28 2.26 1.48 2.88.54 3.3-.54 3.32-1.48 2.88-2.27 2.27-2.87 1.48-3.3.53-3.32-.52-2.87-1.5-2.27-2.26-1.5-2.88-.4-2.6-19.43 9.72-.42-.85 18.2-9.1h-17.98v-.94h18l-18.2-9.1.4-.85 19.43 9.72.42-2.6 1.5-2.88 2.26-2.26 2.88-1.5 3.32-.53zm-6.32.9l-2.6 1.35-2.07 2.06-1.35 2.62-.48 3 .48 3.02 1.36 2.62 2.06 2.06 2.6 1.35 3.02.48 3-.48 2.62-1.35 2.06-2.06 1.35-2.62.5-3-.5-3.02-1.35-2.6-2.06-2.07-2.6-1.35-3.02-.5zM2167.77 564.08h9.05v-9.52h.95v9.52h9.52v.95h-9.53v9.53h-.95v-9.53h-9.05v9.53h-.95v-20h.95z" stroke="#3a414a" stroke-width=".05" fill="#3a414a"/><use xlink:href="#H" transform="matrix(1,0,0,1,1967.395833333333,849.4396847033698) translate(0 17.22222222222222)"/><path d="M2147.3 516.36v.95h-27.96v-.94zm-190.06 0v.95h-47.95v-.94z" stroke="#3a414a" stroke-width=".05" fill="#3a414a"/><path d="M1899.77 506.84v9.52h9.05v-9.52h.95v20h-.95v-9.53h-9.05v9.54h-.95v-9.53h-9.53v-.94h9.52v-9.52z" stroke="#3a414a" stroke-width=".05" fill="#3a414a"/><path d="M2160.23 507.35l2.75 1.42 2.16 2.16 1.42 2.75.5 3.16-.5 3.16-1.42 2.74-2.16 2.17-2.75 1.43-3.16.5-3.16-.5-2.74-1.42-2.16-2.16-1.42-2.74-.5-3.16.5-3.16 1.42-2.75 2.16-2.16 2.75-1.42 3.17-.5zm26.84 19.5l-20-10m20 0h-20m20-10l-20 10" fill="#fff"/><path d="M2160.38 506.9l2.88 1.48 2.27 2.27 1.5 2.88.4 2.6 19.43-9.72.42.86-18.2 9.1h18v.95h-18l18.2 9.1-.42.86-19.42-9.7-.42 2.6-1.5 2.87-2.26 2.27-2.88 1.5-3.3.52-3.32-.54-2.88-1.48-2.27-2.27-1.48-2.88-.53-3.3.52-3.32 1.5-2.88 2.26-2.27 2.88-1.5 3.3-.52zm-6.32.9l-2.6 1.35-2.07 2.07-1.36 2.6-.5 3.02.5 3 1.35 2.62 2.05 2.06 2.6 1.35 3.02.5 3-.5 2.62-1.35 2.05-2.06 1.35-2.6.5-3.02-.5-3-1.35-2.62-2.06-2.07-2.62-1.35-3-.48z" stroke="#3a414a" stroke-width=".05" fill="#3a414a"/><g><use xlink:href="#I" transform="matrix(1,0,0,1,1957.2439236111109,506.0819925981886) translate(0 17.22222222222222)"/></g><path d="M1988.77 463.1l.07.88.2.85.33.8.46.74.56.65.65.57.74.44.8.33.83.2.88.07h153v.95h-153.02l-1-.08-1-.24-.93-.4-.86-.52-.8-.66-.64-.77-.54-.87-.38-.94-.24-1-.08-.98V258h.95zm-5.46-381.16l1 .24.93.4.87.52.77.66.66.77.54.87.38.94.24 1 .07.98v148.15h-.95V88.37l-.07-.9-.2-.84-.33-.8-.46-.74-.56-.67-.66-.56-.74-.45-.8-.33-.84-.22-.88-.06h-230v-.95h230.03z" stroke="#3a414a" stroke-width=".05" fill="#3a414a"/><path d="M1742.77 81.86h9.05v-9.52h.95v20h-.95V82.8l-9.05.02v9.52h-.95V82.8l-9.53.02v-.95h9.52v-9.53h.95z" stroke="#3a414a" stroke-width=".05" fill="#3a414a"/><path d="M2160.23 459.63l2.75 1.42 2.16 2.16 1.42 2.76.5 3.16-.5 3.16-1.42 2.75-2.16 2.16-2.75 1.4-3.16.52-3.16-.5-2.74-1.43L2149 475l-1.42-2.74-.5-3.16.5-3.16 1.42-2.75 2.16-2.15 2.75-1.42 3.17-.5zm26.84 19.5l-20-10m20-10l-20 10m0 0h20" fill="#fff"/><path d="M2160.38 459.17l2.88 1.5 2.27 2.26 1.5 2.88.4 2.6 19.43-9.7.42.84-18.2 9.1h18v.95h-18l18.2 9.1-.42.84-19.42-9.7-.42 2.6-1.5 2.87-2.26 2.28-2.88 1.5-3.3.52-3.32-.53-2.88-1.5-2.27-2.26-1.48-2.87-.53-3.3.52-3.32 1.5-2.87 2.26-2.27 2.88-1.5 3.3-.52zm-6.32.92l-2.6 1.34-2.07 2.06-1.36 2.6-.5 3.02.5 3 1.35 2.62 2.05 2.06 2.6 1.35 3.02.5 3-.5 2.62-1.35 2.05-2.06 1.35-2.6.5-3.02-.5-3-1.35-2.62-2.06-2.06-2.62-1.35-3-.5z" stroke="#3a414a" stroke-width=".05" fill="#3a414a"/><g><use xlink:href="#J" transform="matrix(1,0,0,1,1920.3125,236.4742521165219) translate(0 17.22222222222222)"/></g><defs><path fill="#fff" d="M180 0v-1490h270l367 940c28 72 75 218 110 339 35-117 81-264 110-339l362-940h271V0h-187c2-448-5-837 7-1287-157 497-311 829-483 1287H842C666-458 514-784 354-1284c12 438 5 843 7 1284H180" id="K"/><path fill="#fff" d="M471 26C259 26 90-98 90-318c0-256 228-303 435-329 202-27 287-16 287-108 0-139-79-219-234-219-161 0-248 86-283 164l-173-57c86-203 278-265 451-265 150 0 419 46 419 395V0H815v-152h-12C765-73 660 26 471 26zm31-159c199 0 310-134 310-271v-155c-30 35-226 55-295 64-131 17-246 59-246 186 0 116 97 176 231 176" id="L"/><path fill="#fff" d="M613 24c-304 0-509-231-509-576 0-350 205-580 509-580 216 0 392 114 453 309l-173 49c-33-115-133-197-280-197-223 0-326 196-326 419 0 220 103 415 326 415 150 0 252-85 285-206l172 49C1010-95 832 24 613 24" id="M"/><path fill="#fff" d="M158 0v-1118h174v172h12c41-113 157-188 290-188 26 0 70 2 91 3v181c-11-2-60-10-108-10-161 0-279 109-279 260V0H158" id="N"/><path fill="#fff" d="M613 24c-304 0-509-231-509-576 0-350 205-580 509-580 305 0 511 230 511 580 0 345-206 576-511 576zm0-161c226 0 329-195 329-415 0-222-103-419-329-419-223 0-326 196-326 419 0 220 103 415 326 415" id="O"/><path fill="#fff" d="M783 20c-382 0-661-292-661-764 0-473 279-766 661-766 302 0 548 182 601 489h-190c-42-204-217-313-411-313-268 0-476 208-476 590 0 381 209 588 476 588 195 0 369-110 411-313h190c-52 303-296 489-601 489" id="P"/><path fill="#fff" d="M140 405l46-156c120 36 205 19 263-150l32-93L54-1118h197c107 313 237 620 324 950 87-331 219-637 326-950h196L606 167c-68 178-176 259-334 259-64 0-113-12-132-21" id="Q"/><path fill="#fff" d="M158 418v-1536h174v179h20c37-59 106-193 324-193 279 0 474 222 474 576 0 356-194 580-473 580-213 0-288-135-325-197h-14v591H158zm492-555c209 0 317-186 317-421 0-232-105-413-317-413-206 0-314 166-314 413 0 249 111 421 314 421" id="R"/><path fill="#fff" d="M598-1118v154H368v674c0 100 37 144 132 144 23 0 62-6 92-12L629-6c-37 13-88 20-134 20-193 0-307-107-307-290v-688H20v-154h168v-266h180v266h230" id="S"/><g id="a"><use transform="matrix(0.008173828125000001,0,0,0.008173828125000001,0,0)" xlink:href="#K"/><use transform="matrix(0.008173828125000001,0,0,0.008173828125000001,15.121582031250002,0)" xlink:href="#L"/><use transform="matrix(0.008173828125000001,0,0,0.008173828125000001,24.521484375000004,0)" xlink:href="#M"/><use transform="matrix(0.008173828125000001,0,0,0.008173828125000001,34.08486328125001,0)" xlink:href="#N"/><use transform="matrix(0.008173828125000001,0,0,0.008173828125000001,40.10897460937501,0)" xlink:href="#O"/><use transform="matrix(0.008173828125000001,0,0,0.008173828125000001,50.14643554687501,0)" xlink:href="#P"/><use transform="matrix(0.008173828125000001,0,0,0.008173828125000001,62.374482421875015,0)" xlink:href="#N"/><use transform="matrix(0.008173828125000001,0,0,0.008173828125000001,68.93806640625003,0)" xlink:href="#Q"/><use transform="matrix(0.008173828125000001,0,0,0.008173828125000001,78.34614257812501,0)" xlink:href="#R"/><use transform="matrix(0.008173828125000001,0,0,0.008173828125000001,88.59612304687501,0)" xlink:href="#S"/><use transform="matrix(0.008173828125000001,0,0,0.008173828125000001,93.90911132812501,0)" xlink:href="#O"/></g><path fill="#fff" d="M657 26c-323 0-524-166-541-416h195c15 169 171 246 346 246 202 0 356-106 356-265 5-203-294-238-475-293-239-73-380-191-380-389 0-252 224-419 512-419 294 0 499 171 508 396H992c-17-145-151-228-328-228-193 0-321 102-321 242 0 156 175 211 284 241l149 41c160 44 422 134 422 412 0 244-197 432-541 432" id="T"/><path fill="#fff" d="M538 24C308 24 148-78 108-271l171-41c32 123 123 178 257 178 156 0 256-77 256-169 0-77-54-128-164-154l-186-44c-203-48-300-148-300-305 0-192 176-326 414-326 230 0 351 112 402 269l-163 42c-31-80-94-158-238-158-133 0-233 69-233 162 0 83 57 129 188 160l169 40c203 48 298 149 298 302 0 196-179 339-441 339" id="U"/><path fill="#fff" d="M628 24c-324 0-524-230-524-574 0-343 198-582 503-582 237 0 487 146 487 559v75H286c9 234 145 362 343 362 132 0 231-58 273-172l174 48C1024-91 857 24 628 24zM287-650h624c-17-190-120-322-304-322-192 0-309 151-320 322" id="V"/><path fill="#fff" d="M158 0v-1118h175l1 205c55-151 181-225 313-225 147 0 245 90 285 228 53-141 190-228 352-228 194 0 352 125 352 384V0h-181v-749c0-161-105-225-225-225-151 0-243 103-243 244V0H807v-767c0-124-93-207-219-207-131 0-250 92-250 270V0H158" id="W"/><g id="b"><use transform="matrix(0.008173828125000001,0,0,0.008173828125000001,0,0)" xlink:href="#T"/><use transform="matrix(0.008173828125000001,0,0,0.008173828125000001,10.740410156250002,0)" xlink:href="#Q"/><use transform="matrix(0.008173828125000001,0,0,0.008173828125000001,20.148486328125003,0)" xlink:href="#U"/><use transform="matrix(0.008173828125000001,0,0,0.008173828125000001,28.984394531250004,0)" xlink:href="#S"/><use transform="matrix(0.008173828125000001,0,0,0.008173828125000001,34.297382812500004,0)" xlink:href="#V"/><use transform="matrix(0.008173828125000001,0,0,0.008173828125000001,44.05693359375,0)" xlink:href="#W"/></g><path fill="#fff" d="M52 0l541-1490h220L1361 0h-200l-149-416H398L254 0H52zm404-582h497c-103-290-145-390-251-756-108 377-145 460-246 756" id="X"/><path fill="#fff" d="M338-670V0H158v-1490h180v566c73-149 190-208 336-208 226 0 379 139 379 422V0H872v-695c0-172-96-275-252-275-161 0-282 109-282 300" id="Y"/><path fill="#fff" d="M158 0v-1118h180V0H158zm91-1301c-68 0-125-53-125-119s57-119 125-119c69 0 126 53 126 119s-57 119-126 119" id="Z"/><path fill="#fff" d="M537 14c-226 0-379-139-379-422v-710h180v695c0 172 97 275 253 275 160 0 281-109 281-300v-670h181V0H879v-209C806-46 684 14 537 14" id="aa"/><g id="c"><use transform="matrix(0.008173828125000001,0,0,0.008173828125000001,0,0)" xlink:href="#X"/><use transform="matrix(0.008173828125000001,0,0,0.008173828125000001,11.549619140625001,0)" xlink:href="#N"/><use transform="matrix(0.008173828125000001,0,0,0.008173828125000001,17.57373046875,0)" xlink:href="#M"/><use transform="matrix(0.008173828125000001,0,0,0.008173828125000001,27.137109375000005,0)" xlink:href="#Y"/><use transform="matrix(0.008173828125000001,0,0,0.008173828125000001,37.035615234375,0)" xlink:href="#Z"/><use transform="matrix(0.008173828125000001,0,0,0.008173828125000001,41.089833984375005,0)" xlink:href="#S"/><use transform="matrix(0.008173828125000001,0,0,0.008173828125000001,46.402822265625005,0)" xlink:href="#V"/><use transform="matrix(0.008173828125000001,0,0,0.008173828125000001,56.162373046875004,0)" xlink:href="#M"/><use transform="matrix(0.008173828125000001,0,0,0.008173828125000001,65.72575195312501,0)" xlink:href="#S"/><use transform="matrix(0.008173828125000001,0,0,0.008173828125000001,71.202216796875,0)" xlink:href="#aa"/><use transform="matrix(0.008173828125000001,0,0,0.008173828125000001,81.10072265625001,0)" xlink:href="#N"/><use transform="matrix(0.008173828125000001,0,0,0.008173828125000001,87.12483398437502,0)" xlink:href="#V"/></g><path d="M783 20c-382 0-661-292-661-764 0-473 279-766 661-766 302 0 548 182 601 489h-190c-42-204-217-313-411-313-268 0-476 208-476 590 0 381 209 588 476 588 195 0 369-110 411-313h190c-52 303-296 489-601 489" id="ab"/><path d="M180 0v-1490h190v1322h690V0H180" id="ac"/><path d="M370-1490V0H180v-1490h190" id="ad"/><path d="M180 0v-1490h908v168H370v486h669v168H370v500h727V0H180" id="ae"/><path d="M180 0v-1490h224l606 953c40 63 108 177 176 312-27-437-7-821-13-1265h190V0h-226C860-448 622-778 356-1262c27 476 11 792 15 1262H180" id="af"/><path d="M98-1322v-168h1126v168H757V0H567v-1322H98" id="ag"/><g id="d"><use transform="matrix(0.010850694444444444,0,0,0.010850694444444444,0,0)" xlink:href="#ab"/><use transform="matrix(0.010850694444444444,0,0,0.010850694444444444,16.23263888888889,0)" xlink:href="#ac"/><use transform="matrix(0.010850694444444444,0,0,0.010850694444444444,28.79774305555556,0)" xlink:href="#ad"/><use transform="matrix(0.010850694444444444,0,0,0.010850694444444444,34.765625,0)" xlink:href="#ae"/><use transform="matrix(0.010850694444444444,0,0,0.010850694444444444,48.12282986111111,0)" xlink:href="#af"/><use transform="matrix(0.010850694444444444,0,0,0.010850694444444444,64.86545138888889,0)" xlink:href="#ag"/></g><path d="M158 0v-1118h180V0H158zm91-1301c-68 0-125-53-125-119s57-119 125-119c69 0 126 53 126 119s-57 119-126 119" id="ah"/><path d="M577 24c-279 0-473-224-473-580 0-354 195-576 474-576 218 0 287 134 324 193h14v-551h180V0H922v-173h-20C865-111 790 24 577 24zm27-161c203 0 314-172 314-421 0-247-108-413-314-413-212 0-317 181-317 413 0 235 108 421 317 421" id="ai"/><g id="e"><use transform="matrix(0.010850694444444444,0,0,0.010850694444444444,0,0)" xlink:href="#ah"/><use transform="matrix(0.010850694444444444,0,0,0.010850694444444444,5.381944444444445,0)" xlink:href="#ai"/></g><path d="M538 24C308 24 148-78 108-271l171-41c32 123 123 178 257 178 156 0 256-77 256-169 0-77-54-128-164-154l-186-44c-203-48-300-148-300-305 0-192 176-326 414-326 230 0 351 112 402 269l-163 42c-31-80-94-158-238-158-133 0-233 69-233 162 0 83 57 129 188 160l169 40c203 48 298 149 298 302 0 196-179 339-441 339" id="aj"/><path d="M598-1118v154H368v674c0 100 37 144 132 144 23 0 62-6 92-12L629-6c-37 13-88 20-134 20-193 0-307-107-307-290v-688H20v-154h168v-266h180v266h230" id="ak"/><path d="M158 0v-1118h174v172h12c41-113 157-188 290-188 26 0 70 2 91 3v181c-11-2-60-10-108-10-161 0-279 109-279 260V0H158" id="al"/><path d="M338-670V0H158v-1118h173l1 207c72-158 192-221 342-221 226 0 378 139 378 422V0H872v-695c0-172-96-275-252-275-161 0-282 109-282 300" id="am"/><path d="M611 442c-248 0-391-105-460-228l146-94c47 65 117 165 314 165 178 0 307-82 307-266v-224h-17C863-141 792-18 576-18c-268 0-472-195-472-546 0-346 197-568 476-568 216 0 288 133 326 193h17v-179h175V29c0 289-215 413-487 413zm-5-620c203 0 314-146 314-390 0-237-108-403-314-403-213 0-319 180-319 403 0 230 109 390 319 390" id="an"/><g id="f"><use transform="matrix(0.010850694444444444,0,0,0.010850694444444444,0,0)" xlink:href="#aj"/><use transform="matrix(0.010850694444444444,0,0,0.010850694444444444,11.729600694444445,0)" xlink:href="#ak"/><use transform="matrix(0.010850694444444444,0,0,0.010850694444444444,18.99956597222222,0)" xlink:href="#al"/><use transform="matrix(0.010850694444444444,0,0,0.010850694444444444,27.712673611111104,0)" xlink:href="#ah"/><use transform="matrix(0.010850694444444444,0,0,0.010850694444444444,33.09461805555555,0)" xlink:href="#am"/><use transform="matrix(0.010850694444444444,0,0,0.010850694444444444,46.22395833333333,0)" xlink:href="#an"/></g><path d="M409 0L70-1118h191c89 329 165 560 243 925 75-353 154-601 240-925h192c85 325 161 564 235 922 77-354 157-598 244-922h191L1267 0h-179c-86-307-176-590-250-913C763-588 675-308 588 0H409" id="ao"/><path d="M471 26C259 26 90-98 90-318c0-256 228-303 435-329 202-27 287-16 287-108 0-139-79-219-234-219-161 0-248 86-283 164l-173-57c86-203 278-265 451-265 150 0 419 46 419 395V0H815v-152h-12C765-73 660 26 471 26zm31-159c199 0 310-134 310-271v-155c-30 35-226 55-295 64-131 17-246 59-246 186 0 116 97 176 231 176" id="ap"/><path d="M338-1490V0H158v-1490h180" id="aq"/><path d="M628 24c-324 0-524-230-524-574 0-343 198-582 503-582 237 0 487 146 487 559v75H286c9 234 145 362 343 362 132 0 231-58 273-172l174 48C1024-91 857 24 628 24zM287-650h624c-17-190-120-322-304-322-192 0-309 151-320 322" id="ar"/><path d="M52 0l541-1490h220L1361 0h-200l-149-416H398L254 0H52zm404-582h497c-103-290-145-390-251-756-108 377-145 460-246 756" id="as"/><g id="g"><use transform="matrix(0.010850694444444444,0,0,0.010850694444444444,0,0)" xlink:href="#ao"/><use transform="matrix(0.010850694444444444,0,0,0.010850694444444444,18.18576388888889,0)" xlink:href="#ap"/><use transform="matrix(0.010850694444444444,0,0,0.010850694444444444,30.6640625,0)" xlink:href="#aq"/><use transform="matrix(0.010850694444444444,0,0,0.010850694444444444,36.04600694444444,0)" xlink:href="#aq"/><use transform="matrix(0.010850694444444444,0,0,0.010850694444444444,41.427951388888886,0)" xlink:href="#ar"/><use transform="matrix(0.010850694444444444,0,0,0.010850694444444444,54.38368055555556,0)" xlink:href="#ak"/><use transform="matrix(0.010850694444444444,0,0,0.010850694444444444,61.65364583333333,0)" xlink:href="#as"/><use transform="matrix(0.010850694444444444,0,0,0.010850694444444444,76.98567708333333,0)" xlink:href="#ai"/><use transform="matrix(0.010850694444444444,0,0,0.010850694444444444,90.59244791666666,0)" xlink:href="#ai"/><use transform="matrix(0.010850694444444444,0,0,0.010850694444444444,104.19921874999997,0)" xlink:href="#al"/><use transform="matrix(0.010850694444444444,0,0,0.010850694444444444,112.19618055555556,0)" xlink:href="#ar"/><use transform="matrix(0.010850694444444444,0,0,0.010850694444444444,125.15190972222221,0)" xlink:href="#aj"/><use transform="matrix(0.010850694444444444,0,0,0.010850694444444444,136.88151041666666,0)" xlink:href="#aj"/></g><path d="M57 0l534-763-501-727h220c122 187 296 416 391 605 94-191 272-419 396-605h215L811-770 1340 0h-219C986-204 811-426 699-640 588-430 407-202 273 0H57" id="at"/><path d="M120-303v-155l652-1032h231v1020h202v167h-202V0H821v-303H120zm702-167v-782h-12L323-482v12h499" id="au"/><path d="M646 20c-332 0-524-278-524-764 0-483 194-766 524-766s524 283 524 766c0 485-191 764-524 764zm0-166c218 0 341-220 341-598 0-380-123-601-341-601s-341 222-341 601c0 378 123 598 341 598" id="av"/><path d="M154 0v-137l495-537c165-179 249-281 249-418 0-156-121-253-280-253-170 0-278 110-278 278H158c0-264 200-443 465-443 266 0 455 183 455 416 0 161-73 288-336 568L416-179v12h687V0H154" id="aw"/><g id="h"><use transform="matrix(0.010850694444444444,0,0,0.010850694444444444,0,0)" xlink:href="#at"/><use transform="matrix(0.010850694444444444,0,0,0.010850694444444444,14.279513888888888,0)" xlink:href="#au"/><use transform="matrix(0.010850694444444444,0,0,0.010850694444444444,28.63498263888889,0)" xlink:href="#av"/><use transform="matrix(0.010850694444444444,0,0,0.010850694444444444,42.65407986111111,0)" xlink:href="#aw"/></g><path d="M158 418v-1536h174v179h20c37-59 106-193 324-193 279 0 474 222 474 576 0 356-194 580-473 580-213 0-288-135-325-197h-14v591H158zm492-555c209 0 317-186 317-421 0-232-105-413-317-413-206 0-314 166-314 413 0 249 111 421 314 421" id="ax"/><path d="M140 405l46-156c120 36 205 19 263-150l32-93L54-1118h197c107 313 237 620 324 950 87-331 219-637 326-950h196L606 167c-68 178-176 259-334 259-64 0-113-12-132-21" id="ay"/><path d="M158 0v-1118h175l1 205c55-151 181-225 313-225 147 0 245 90 285 228 53-141 190-228 352-228 194 0 352 125 352 384V0h-181v-749c0-161-105-225-225-225-151 0-243 103-243 244V0H807v-767c0-124-93-207-219-207-131 0-250 92-250 270V0H158" id="az"/><path d="M613 24c-304 0-509-231-509-576 0-350 205-580 509-580 305 0 511 230 511 580 0 345-206 576-511 576zm0-161c226 0 329-195 329-415 0-222-103-419-329-419-223 0-326 196-326 419 0 220 103 415 326 415" id="aA"/><path d="M158 0v-1490h180v865h22l478-493h223L593-638 1096 0H865L456-523 338-412V0H158" id="aB"/><g id="i"><use transform="matrix(0.010850694444444444,0,0,0.010850694444444444,0,0)" xlink:href="#ax"/><use transform="matrix(0.010850694444444444,0,0,0.010850694444444444,13.823784722222221,0)" xlink:href="#ap"/><use transform="matrix(0.010850694444444444,0,0,0.010850694444444444,25.9765625,0)" xlink:href="#ay"/><use transform="matrix(0.010850694444444444,0,0,0.010850694444444444,38.46571180555556,0)" xlink:href="#az"/><use transform="matrix(0.010850694444444444,0,0,0.010850694444444444,57.931857638888886,0)" xlink:href="#ar"/><use transform="matrix(0.010850694444444444,0,0,0.010850694444444444,70.88758680555556,0)" xlink:href="#am"/><use transform="matrix(0.010850694444444444,0,0,0.010850694444444444,84.01692708333333,0)" xlink:href="#ak"/><use transform="matrix(0.010850694444444444,0,0,0.010850694444444444,90.53819444444441,0)" xlink:href="#ag"/><use transform="matrix(0.010850694444444444,0,0,0.010850694444444444,103.14670138888887,0)" xlink:href="#aA"/><use transform="matrix(0.010850694444444444,0,0,0.010850694444444444,116.47135416666664,0)" xlink:href="#aB"/><use transform="matrix(0.010850694444444444,0,0,0.010850694444444444,128.16840277777774,0)" xlink:href="#ar"/><use transform="matrix(0.010850694444444444,0,0,0.010850694444444444,141.1241319444444,0)" xlink:href="#am"/></g><path d="M232-923l-22-567h194l-22 567H232zm340 0l-22-567h194l-22 567H572" id="aC"/><path d="M763 24c-353 0-583-224-583-531v-983h190v968c0 214 149 370 393 370 243 0 391-156 391-370v-968h190v983c0 307-230 531-581 531" id="aD"/><path d="M657 26c-323 0-524-166-541-416h195c15 169 171 246 346 246 202 0 356-106 356-265 5-203-294-238-475-293-239-73-380-191-380-389 0-252 224-419 512-419 294 0 499 171 508 396H992c-17-145-151-228-328-228-193 0-321 102-321 242 0 156 175 211 284 241l149 41c160 44 422 134 422 412 0 244-197 432-541 432" id="aE"/><path d="M645 0H180v-1490h484c435 0 692 280 692 742 0 466-257 748-711 748zM370-168h263c363 0 539-218 539-580 0-358-176-574-521-574H370v1154" id="aF"/><g id="j"><use transform="matrix(0.010850694444444444,0,0,0.010850694444444444,0,0)" xlink:href="#aC"/><use transform="matrix(0.010850694444444444,0,0,0.010850694444444444,10.3515625,0)" xlink:href="#aD"/><use transform="matrix(0.010850694444444444,0,0,0.010850694444444444,26.888020833333332,0)" xlink:href="#aE"/><use transform="matrix(0.010850694444444444,0,0,0.010850694444444444,41.14583333333333,0)" xlink:href="#aF"/><use transform="matrix(0.010850694444444444,0,0,0.010850694444444444,57.18315972222221,0)" xlink:href="#ab"/><use transform="matrix(0.010850694444444444,0,0,0.010850694444444444,73.4157986111111,0)" xlink:href="#aC"/></g><path d="M613 24c-304 0-509-231-509-576 0-350 205-580 509-580 216 0 392 114 453 309l-173 49c-33-115-133-197-280-197-223 0-326 196-326 419 0 220 103 415 326 415 150 0 252-85 285-206l172 49C1010-95 832 24 613 24" id="aG"/><g id="k"><use transform="matrix(0.010850694444444444,0,0,0.010850694444444444,0,0)" xlink:href="#az"/><use transform="matrix(0.010850694444444444,0,0,0.010850694444444444,19.466145833333332,0)" xlink:href="#ah"/><use transform="matrix(0.010850694444444444,0,0,0.010850694444444444,24.84809027777778,0)" xlink:href="#aG"/><use transform="matrix(0.010850694444444444,0,0,0.010850694444444444,37.54340277777778,0)" xlink:href="#al"/><use transform="matrix(0.010850694444444444,0,0,0.010850694444444444,45.54036458333333,0)" xlink:href="#aA"/><use transform="matrix(0.010850694444444444,0,0,0.010850694444444444,58.86501736111111,0)" xlink:href="#ax"/><use transform="matrix(0.010850694444444444,0,0,0.010850694444444444,72.68880208333333,0)" xlink:href="#ap"/><use transform="matrix(0.010850694444444444,0,0,0.010850694444444444,84.84157986111111,0)" xlink:href="#ay"/><use transform="matrix(0.010850694444444444,0,0,0.010850694444444444,97.33072916666666,0)" xlink:href="#az"/><use transform="matrix(0.010850694444444444,0,0,0.010850694444444444,116.796875,0)" xlink:href="#ar"/><use transform="matrix(0.010850694444444444,0,0,0.010850694444444444,129.75260416666666,0)" xlink:href="#am"/><use transform="matrix(0.010850694444444444,0,0,0.010850694444444444,142.88194444444443,0)" xlink:href="#ak"/><use transform="matrix(0.010850694444444444,0,0,0.010850694444444444,150.1519097222222,0)" xlink:href="#ab"/><use transform="matrix(0.010850694444444444,0,0,0.010850694444444444,166.3845486111111,0)" xlink:href="#ar"/><use transform="matrix(0.010850694444444444,0,0,0.010850694444444444,179.34027777777774,0)" xlink:href="#am"/><use transform="matrix(0.010850694444444444,0,0,0.010850694444444444,192.46961805555551,0)" xlink:href="#ak"/><use transform="matrix(0.010850694444444444,0,0,0.010850694444444444,199.5225694444444,0)" xlink:href="#aj"/></g><path d="M678-1118v154H420V0H240v-964H20v-154h220v-149c0-194 155-293 318-293 85 0 141 18 168 30l-50 154c-19-6-47-17-97-17-111 0-159 58-159 166v109h258" id="aH"/><g id="l"><use transform="matrix(0.010850694444444444,0,0,0.010850694444444444,0,0)" xlink:href="#aH"/><use transform="matrix(0.010850694444444444,0,0,0.010850694444444444,8.22482638888889,0)" xlink:href="#aq"/><use transform="matrix(0.010850694444444444,0,0,0.010850694444444444,13.606770833333332,0)" xlink:href="#aA"/><use transform="matrix(0.010850694444444444,0,0,0.010850694444444444,27.1484375,0)" xlink:href="#ap"/><use transform="matrix(0.010850694444444444,0,0,0.010850694444444444,39.626736111111114,0)" xlink:href="#ak"/></g><g id="m"><use transform="matrix(0.010850694444444444,0,0,0.010850694444444444,0,0)" xlink:href="#al"/><use transform="matrix(0.010850694444444444,0,0,0.010850694444444444,7.996961805555555,0)" xlink:href="#ar"/><use transform="matrix(0.010850694444444444,0,0,0.010850694444444444,20.95269097222222,0)" xlink:href="#aG"/><use transform="matrix(0.010850694444444444,0,0,0.010850694444444444,33.64800347222222,0)" xlink:href="#ar"/><use transform="matrix(0.010850694444444444,0,0,0.010850694444444444,46.603732638888886,0)" xlink:href="#ah"/><use transform="matrix(0.010850694444444444,0,0,0.010850694444444444,51.98567708333333,0)" xlink:href="#ax"/><use transform="matrix(0.010850694444444444,0,0,0.010850694444444444,65.59244791666666,0)" xlink:href="#ak"/><use transform="matrix(0.010850694444444444,0,0,0.010850694444444444,72.86241319444443,0)" xlink:href="#ad"/><use transform="matrix(0.010850694444444444,0,0,0.010850694444444444,78.83029513888887,0)" xlink:href="#ai"/></g><path d="M600 0L52-1490h200c166 485 304 806 458 1336 156-533 285-846 449-1336h202L819 0H600" id="aI"/><path d="M180 0v-1490h528c311 0 458 177 458 395 0 191-114 278-244 313v14c139 9 302 137 302 371 0 225-148 397-499 397H180zm190-168h350c232 0 321-102 321-231 0-149-120-277-311-277H370v508zm0-668h328c160 0 286-101 286-255 0-129-87-231-280-231H370v486" id="aJ"/><path d="M934 0v166H0V0h934" id="aK"/><path d="M180 0v-1490h510c348 0 508 194 508 460 0 198-88 351-276 417L1256 0h-220L726-579c-117 2-238 0-356 1V0H180zm190-747h312c235 0 327-108 327-283 0-177-92-293-329-293H370v576" id="aL"/><g id="n"><use transform="matrix(0.010850694444444444,0,0,0.010850694444444444,0,0)" xlink:href="#ad"/><use transform="matrix(0.010850694444444444,0,0,0.010850694444444444,5.967881944444445,0)" xlink:href="#af"/><use transform="matrix(0.010850694444444444,0,0,0.010850694444444444,22.71050347222222,0)" xlink:href="#aI"/><use transform="matrix(0.010850694444444444,0,0,0.010850694444444444,38.04253472222222,0)" xlink:href="#ae"/><use transform="matrix(0.010850694444444444,0,0,0.010850694444444444,51.39973958333333,0)" xlink:href="#aE"/><use transform="matrix(0.010850694444444444,0,0,0.010850694444444444,65.65755208333333,0)" xlink:href="#ag"/><use transform="matrix(0.010850694444444444,0,0,0.010850694444444444,80.00217013888889,0)" xlink:href="#aJ"/><use transform="matrix(0.010850694444444444,0,0,0.010850694444444444,94.54210069444444,0)" xlink:href="#aD"/><use transform="matrix(0.010850694444444444,0,0,0.010850694444444444,111.07855902777777,0)" xlink:href="#aF"/><use transform="matrix(0.010850694444444444,0,0,0.010850694444444444,126.23697916666666,0)" xlink:href="#aK"/><use transform="matrix(0.010850694444444444,0,0,0.010850694444444444,136.37152777777777,0)" xlink:href="#aE"/><use transform="matrix(0.010850694444444444,0,0,0.010850694444444444,150.62934027777777,0)" xlink:href="#ae"/><use transform="matrix(0.010850694444444444,0,0,0.010850694444444444,163.98654513888889,0)" xlink:href="#aL"/><use transform="matrix(0.010850694444444444,0,0,0.010850694444444444,177.91883680555554,0)" xlink:href="#aI"/><use transform="matrix(0.010850694444444444,0,0,0.010850694444444444,193.25086805555554,0)" xlink:href="#ae"/><use transform="matrix(0.010850694444444444,0,0,0.010850694444444444,206.60807291666666,0)" xlink:href="#aL"/></g><g id="o"><use transform="matrix(0.010850694444444444,0,0,0.010850694444444444,0,0)" xlink:href="#al"/><use transform="matrix(0.010850694444444444,0,0,0.010850694444444444,7.996961805555555,0)" xlink:href="#ar"/><use transform="matrix(0.010850694444444444,0,0,0.010850694444444444,20.95269097222222,0)" xlink:href="#an"/><use transform="matrix(0.010850694444444444,0,0,0.010850694444444444,34.58116319444444,0)" xlink:href="#ah"/><use transform="matrix(0.010850694444444444,0,0,0.010850694444444444,39.963107638888886,0)" xlink:href="#az"/><use transform="matrix(0.010850694444444444,0,0,0.010850694444444444,59.42925347222221,0)" xlink:href="#ar"/></g><path d="M798-719v166H144v-166h654" id="aM"/><path d="M419-1970V480H262v-2450h157" id="aN"/><g id="p"><use transform="matrix(0.010850694444444444,0,0,0.010850694444444444,0,0)" xlink:href="#aC"/><use transform="matrix(0.010850694444444444,0,0,0.010850694444444444,10.3515625,0)" xlink:href="#al"/><use transform="matrix(0.010850694444444444,0,0,0.010850694444444444,19.064670138888886,0)" xlink:href="#ah"/><use transform="matrix(0.010850694444444444,0,0,0.010850694444444444,24.44661458333333,0)" xlink:href="#aj"/><use transform="matrix(0.010850694444444444,0,0,0.010850694444444444,36.17621527777777,0)" xlink:href="#aB"/><use transform="matrix(0.010850694444444444,0,0,0.010850694444444444,47.363281249999986,0)" xlink:href="#aM"/><use transform="matrix(0.010850694444444444,0,0,0.010850694444444444,57.58463541666666,0)" xlink:href="#aA"/><use transform="matrix(0.010850694444444444,0,0,0.010850694444444444,70.90928819444443,0)" xlink:href="#am"/><use transform="matrix(0.010850694444444444,0,0,0.010850694444444444,84.0386284722222,0)" xlink:href="#aN"/><use transform="matrix(0.010850694444444444,0,0,0.010850694444444444,91.42795138888887,0)" xlink:href="#al"/><use transform="matrix(0.010850694444444444,0,0,0.010850694444444444,100.14105902777777,0)" xlink:href="#ah"/><use transform="matrix(0.010850694444444444,0,0,0.010850694444444444,105.52300347222221,0)" xlink:href="#aj"/><use transform="matrix(0.010850694444444444,0,0,0.010850694444444444,117.25260416666666,0)" xlink:href="#aB"/><use transform="matrix(0.010850694444444444,0,0,0.010850694444444444,128.43967013888889,0)" xlink:href="#aM"/><use transform="matrix(0.010850694444444444,0,0,0.010850694444444444,138.66102430555554,0)" xlink:href="#aA"/><use transform="matrix(0.010850694444444444,0,0,0.010850694444444444,151.98567708333331,0)" xlink:href="#aH"/><use transform="matrix(0.010850694444444444,0,0,0.010850694444444444,159.34244791666666,0)" xlink:href="#aH"/><use transform="matrix(0.010850694444444444,0,0,0.010850694444444444,167.56727430555554,0)" xlink:href="#aC"/></g><g id="q"><use transform="matrix(0.010850694444444444,0,0,0.010850694444444444,0,0)" xlink:href="#az"/><use transform="matrix(0.010850694444444444,0,0,0.010850694444444444,19.466145833333332,0)" xlink:href="#aA"/><use transform="matrix(0.010850694444444444,0,0,0.010850694444444444,32.79079861111111,0)" xlink:href="#ai"/><use transform="matrix(0.010850694444444444,0,0,0.010850694444444444,46.39756944444444,0)" xlink:href="#ar"/><use transform="matrix(0.010850694444444444,0,0,0.010850694444444444,59.35329861111111,0)" xlink:href="#aq"/><use transform="matrix(0.010850694444444444,0,0,0.010850694444444444,64.73524305555556,0)" xlink:href="#aI"/><use transform="matrix(0.010850694444444444,0,0,0.010850694444444444,78.93880208333334,0)" xlink:href="#ar"/><use transform="matrix(0.010850694444444444,0,0,0.010850694444444444,91.89453125000001,0)" xlink:href="#al"/><use transform="matrix(0.010850694444444444,0,0,0.010850694444444444,100.26041666666669,0)" xlink:href="#aj"/><use transform="matrix(0.010850694444444444,0,0,0.010850694444444444,111.99001736111113,0)" xlink:href="#ah"/><use transform="matrix(0.010850694444444444,0,0,0.010850694444444444,117.37196180555557,0)" xlink:href="#aA"/><use transform="matrix(0.010850694444444444,0,0,0.010850694444444444,130.69661458333334,0)" xlink:href="#am"/></g><g id="r"><use transform="matrix(0.010850694444444444,0,0,0.010850694444444444,0,0)" xlink:href="#ao"/><use transform="matrix(0.010850694444444444,0,0,0.010850694444444444,18.18576388888889,0)" xlink:href="#ap"/><use transform="matrix(0.010850694444444444,0,0,0.010850694444444444,30.6640625,0)" xlink:href="#aq"/><use transform="matrix(0.010850694444444444,0,0,0.010850694444444444,36.04600694444444,0)" xlink:href="#aq"/><use transform="matrix(0.010850694444444444,0,0,0.010850694444444444,41.427951388888886,0)" xlink:href="#ar"/><use transform="matrix(0.010850694444444444,0,0,0.010850694444444444,54.38368055555556,0)" xlink:href="#ak"/><use transform="matrix(0.010850694444444444,0,0,0.010850694444444444,61.65364583333333,0)" xlink:href="#as"/><use transform="matrix(0.010850694444444444,0,0,0.010850694444444444,76.98567708333333,0)" xlink:href="#am"/><use transform="matrix(0.010850694444444444,0,0,0.010850694444444444,90.11501736111111,0)" xlink:href="#ap"/><use transform="matrix(0.010850694444444444,0,0,0.010850694444444444,102.59331597222221,0)" xlink:href="#aq"/><use transform="matrix(0.010850694444444444,0,0,0.010850694444444444,108.08376736111111,0)" xlink:href="#ay"/><use transform="matrix(0.010850694444444444,0,0,0.010850694444444444,120.57291666666666,0)" xlink:href="#aj"/><use transform="matrix(0.010850694444444444,0,0,0.010850694444444444,132.30251736111111,0)" xlink:href="#ah"/><use transform="matrix(0.010850694444444444,0,0,0.010850694444444444,137.68446180555557,0)" xlink:href="#aj"/></g><path d="M784 20c-382 0-662-292-662-764 0-473 280-766 662-766s660 293 660 766c0 472-278 764-660 764zm0-176c266 0 475-207 475-588 0-383-209-590-475-590-268 0-477 208-477 590 0 380 209 588 477 588" id="aO"/><path d="M789 20c-398 0-667-293-667-764 0-473 273-766 655-766 315 0 558 198 612 487h-196c-61-191-204-311-415-311-262 0-471 207-471 590 0 380 208 588 482 588 249 0 420-165 425-427H828v-166h572v163c0 370-256 606-611 606" id="aP"/><path d="M180 0v-1490h190c0 262 1 526-3 784 217-279 467-523 702-784h249L716-845 1319 0h-225L585-716 370-489V0H180" id="aQ"/><g id="s"><use transform="matrix(0.010850694444444444,0,0,0.010850694444444444,0,0)" xlink:href="#aO"/><use transform="matrix(0.010850694444444444,0,0,0.010850694444444444,16.9921875,0)" xlink:href="#aL"/><use transform="matrix(0.010850694444444444,0,0,0.010850694444444444,31.293402777777775,0)" xlink:href="#ad"/><use transform="matrix(0.010850694444444444,0,0,0.010850694444444444,37.26128472222222,0)" xlink:href="#aP"/><use transform="matrix(0.010850694444444444,0,0,0.010850694444444444,53.84114583333333,0)" xlink:href="#ad"/><use transform="matrix(0.010850694444444444,0,0,0.010850694444444444,59.80902777777778,0)" xlink:href="#af"/><use transform="matrix(0.010850694444444444,0,0,0.010850694444444444,76.55164930555554,0)" xlink:href="#ag"/><use transform="matrix(0.010850694444444444,0,0,0.010850694444444444,90.89626736111111,0)" xlink:href="#aL"/><use transform="matrix(0.010850694444444444,0,0,0.010850694444444444,105.19748263888887,0)" xlink:href="#as"/><use transform="matrix(0.010850694444444444,0,0,0.010850694444444444,120.52951388888887,0)" xlink:href="#ad"/><use transform="matrix(0.010850694444444444,0,0,0.010850694444444444,126.49739583333331,0)" xlink:href="#ac"/><use transform="matrix(0.010850694444444444,0,0,0.010850694444444444,139.06249999999997,0)" xlink:href="#aK"/><use transform="matrix(0.010850694444444444,0,0,0.010850694444444444,149.94574652777774,0)" xlink:href="#aF"/><use transform="matrix(0.010850694444444444,0,0,0.010850694444444444,165.98307291666663,0)" xlink:href="#aQ"/><use transform="matrix(0.010850694444444444,0,0,0.010850694444444444,180.16493055555551,0)" xlink:href="#aP"/></g><g id="t"><use transform="matrix(0.010850694444444444,0,0,0.010850694444444444,0,0)" xlink:href="#aB"/><use transform="matrix(0.010850694444444444,0,0,0.010850694444444444,12.196180555555555,0)" xlink:href="#am"/><use transform="matrix(0.010850694444444444,0,0,0.010850694444444444,25.325520833333332,0)" xlink:href="#aA"/><use transform="matrix(0.010850694444444444,0,0,0.010850694444444444,38.248697916666664,0)" xlink:href="#ao"/><use transform="matrix(0.010850694444444444,0,0,0.010850694444444444,56.43446180555555,0)" xlink:href="#aq"/><use transform="matrix(0.010850694444444444,0,0,0.010850694444444444,61.81640625,0)" xlink:href="#ar"/><use transform="matrix(0.010850694444444444,0,0,0.010850694444444444,74.77213541666667,0)" xlink:href="#ai"/><use transform="matrix(0.010850694444444444,0,0,0.010850694444444444,88.37890625,0)" xlink:href="#an"/><use transform="matrix(0.010850694444444444,0,0,0.010850694444444444,102.00737847222224,0)" xlink:href="#ar"/><use transform="matrix(0.010850694444444444,0,0,0.010850694444444444,114.21440972222224,0)" xlink:href="#as"/><use transform="matrix(0.010850694444444444,0,0,0.010850694444444444,129.54644097222223,0)" xlink:href="#aj"/><use transform="matrix(0.010850694444444444,0,0,0.010850694444444444,141.27604166666669,0)" xlink:href="#aj"/><use transform="matrix(0.010850694444444444,0,0,0.010850694444444444,153.00564236111114,0)" xlink:href="#ar"/><use transform="matrix(0.010850694444444444,0,0,0.010850694444444444,165.9613715277778,0)" xlink:href="#ak"/><use transform="matrix(0.010850694444444444,0,0,0.010850694444444444,173.23133680555557,0)" xlink:href="#ad"/><use transform="matrix(0.010850694444444444,0,0,0.010850694444444444,179.19921875000003,0)" xlink:href="#ai"/></g><path d="M545 20c-263 0-445-160-445-446v-80h190v80c0 182 102 279 255 279 152 0 254-97 254-279v-1064h190v1064c0 286-181 446-444 446" id="aR"/><g id="u"><use transform="matrix(0.010850694444444444,0,0,0.010850694444444444,0,0)" xlink:href="#aj"/><use transform="matrix(0.010850694444444444,0,0,0.010850694444444444,11.729600694444445,0)" xlink:href="#ah"/><use transform="matrix(0.010850694444444444,0,0,0.010850694444444444,17.11154513888889,0)" xlink:href="#an"/><use transform="matrix(0.010850694444444444,0,0,0.010850694444444444,30.74001736111111,0)" xlink:href="#am"/><use transform="matrix(0.010850694444444444,0,0,0.010850694444444444,43.869357638888886,0)" xlink:href="#ar"/><use transform="matrix(0.010850694444444444,0,0,0.010850694444444444,56.82508680555555,0)" xlink:href="#ai"/><use transform="matrix(0.010850694444444444,0,0,0.010850694444444444,70.43185763888889,0)" xlink:href="#aR"/><use transform="matrix(0.010850694444444444,0,0,0.010850694444444444,83.11631944444444,0)" xlink:href="#aE"/><use transform="matrix(0.010850694444444444,0,0,0.010850694444444444,97.37413194444444,0)" xlink:href="#aO"/><use transform="matrix(0.010850694444444444,0,0,0.010850694444444444,114.36631944444444,0)" xlink:href="#af"/></g><g id="v"><use transform="matrix(0.010850694444444444,0,0,0.010850694444444444,0,0)" xlink:href="#ak"/><use transform="matrix(0.010850694444444444,0,0,0.010850694444444444,7.269965277777778,0)" xlink:href="#ah"/><use transform="matrix(0.010850694444444444,0,0,0.010850694444444444,12.651909722222221,0)" xlink:href="#az"/><use transform="matrix(0.010850694444444444,0,0,0.010850694444444444,32.11805555555556,0)" xlink:href="#ar"/><use transform="matrix(0.010850694444444444,0,0,0.010850694444444444,45.07378472222222,0)" xlink:href="#aj"/><use transform="matrix(0.010850694444444444,0,0,0.010850694444444444,56.803385416666664,0)" xlink:href="#ak"/><use transform="matrix(0.010850694444444444,0,0,0.010850694444444444,64.18185763888889,0)" xlink:href="#ap"/><use transform="matrix(0.010850694444444444,0,0,0.010850694444444444,76.66015625,0)" xlink:href="#az"/><use transform="matrix(0.010850694444444444,0,0,0.010850694444444444,96.12630208333333,0)" xlink:href="#ax"/></g><g id="w"><use transform="matrix(0.010850694444444444,0,0,0.010850694444444444,0,0)" xlink:href="#ai"/><use transform="matrix(0.010850694444444444,0,0,0.010850694444444444,13.606770833333332,0)" xlink:href="#ap"/><use transform="matrix(0.010850694444444444,0,0,0.010850694444444444,26.085069444444443,0)" xlink:href="#ak"/><use transform="matrix(0.010850694444444444,0,0,0.010850694444444444,33.13802083333333,0)" xlink:href="#ar"/><use transform="matrix(0.010850694444444444,0,0,0.010850694444444444,46.093749999999986,0)" xlink:href="#ak"/><use transform="matrix(0.010850694444444444,0,0,0.010850694444444444,53.36371527777778,0)" xlink:href="#ah"/><use transform="matrix(0.010850694444444444,0,0,0.010850694444444444,58.74565972222221,0)" xlink:href="#az"/><use transform="matrix(0.010850694444444444,0,0,0.010850694444444444,78.21180555555554,0)" xlink:href="#ar"/></g><path d="M537 14c-226 0-379-139-379-422v-710h180v695c0 172 97 275 253 275 160 0 281-109 281-300v-670h181V0H879v-209C806-46 684 14 537 14" id="aS"/><g id="x"><use transform="matrix(0.010850694444444444,0,0,0.010850694444444444,0,0)" xlink:href="#aA"/><use transform="matrix(0.010850694444444444,0,0,0.010850694444444444,13.324652777777777,0)" xlink:href="#al"/><use transform="matrix(0.010850694444444444,0,0,0.010850694444444444,21.690538194444443,0)" xlink:href="#ap"/><use transform="matrix(0.010850694444444444,0,0,0.010850694444444444,34.16883680555556,0)" xlink:href="#aG"/><use transform="matrix(0.010850694444444444,0,0,0.010850694444444444,46.86414930555556,0)" xlink:href="#aq"/><use transform="matrix(0.010850694444444444,0,0,0.010850694444444444,52.24609375,0)" xlink:href="#ar"/><use transform="matrix(0.010850694444444444,0,0,0.010850694444444444,65.20182291666667,0)" xlink:href="#aE"/><use transform="matrix(0.010850694444444444,0,0,0.010850694444444444,79.45963541666667,0)" xlink:href="#ah"/><use transform="matrix(0.010850694444444444,0,0,0.010850694444444444,84.84157986111111,0)" xlink:href="#an"/><use transform="matrix(0.010850694444444444,0,0,0.010850694444444444,98.47005208333334,0)" xlink:href="#am"/><use transform="matrix(0.010850694444444444,0,0,0.010850694444444444,111.5993923611111,0)" xlink:href="#ap"/><use transform="matrix(0.010850694444444444,0,0,0.010850694444444444,124.07769097222224,0)" xlink:href="#ak"/><use transform="matrix(0.010850694444444444,0,0,0.010850694444444444,131.34765625,0)" xlink:href="#aS"/><use transform="matrix(0.010850694444444444,0,0,0.010850694444444444,144.48784722222223,0)" xlink:href="#al"/><use transform="matrix(0.010850694444444444,0,0,0.010850694444444444,152.48480902777777,0)" xlink:href="#ar"/></g><path d="M180 0v-1490h510c348 0 508 209 508 474 0 266-160 477-507 477H370V0H180zm190-706h312c236 0 327-133 327-310 0-176-91-307-329-307H370v617" id="aT"/><path d="M180 0v-1490h190v644h782v-644h190V0h-190v-678H370V0H180" id="aU"/><path d="M180 0v-1490h901v168H370v510h643v168H370V0H180" id="aV"/><path d="M180 0v-1490h270l367 940c28 72 75 218 110 339 35-117 81-264 110-339l362-940h271V0h-187c2-448-5-837 7-1287-157 497-311 829-483 1287H842C666-458 514-784 354-1284c12 438 5 843 7 1284H180" id="aW"/><g id="y"><use transform="matrix(0.010850694444444444,0,0,0.010850694444444444,0,0)" xlink:href="#aP"/><use transform="matrix(0.010850694444444444,0,0,0.010850694444444444,16.57986111111111,0)" xlink:href="#aL"/><use transform="matrix(0.010850694444444444,0,0,0.010850694444444444,30.88107638888889,0)" xlink:href="#as"/><use transform="matrix(0.010850694444444444,0,0,0.010850694444444444,46.213107638888886,0)" xlink:href="#aT"/><use transform="matrix(0.010850694444444444,0,0,0.010850694444444444,60.40581597222221,0)" xlink:href="#aU"/><use transform="matrix(0.010850694444444444,0,0,0.010850694444444444,76.92057291666666,0)" xlink:href="#aK"/><use transform="matrix(0.010850694444444444,0,0,0.010850694444444444,86.17621527777777,0)" xlink:href="#ab"/><use transform="matrix(0.010850694444444444,0,0,0.010850694444444444,102.40885416666666,0)" xlink:href="#aO"/><use transform="matrix(0.010850694444444444,0,0,0.010850694444444444,119.40104166666666,0)" xlink:href="#af"/><use transform="matrix(0.010850694444444444,0,0,0.010850694444444444,136.14366319444443,0)" xlink:href="#aV"/><use transform="matrix(0.010850694444444444,0,0,0.010850694444444444,149.26215277777777,0)" xlink:href="#ad"/><use transform="matrix(0.010850694444444444,0,0,0.010850694444444444,155.23003472222223,0)" xlink:href="#aL"/><use transform="matrix(0.010850694444444444,0,0,0.010850694444444444,169.53125,0)" xlink:href="#aW"/><use transform="matrix(0.010850694444444444,0,0,0.010850694444444444,189.60503472222223,0)" xlink:href="#ad"/><use transform="matrix(0.010850694444444444,0,0,0.010850694444444444,195.57291666666669,0)" xlink:href="#af"/><use transform="matrix(0.010850694444444444,0,0,0.010850694444444444,212.31553819444449,0)" xlink:href="#aP"/><use transform="matrix(0.010850694444444444,0,0,0.010850694444444444,228.8953993055556,0)" xlink:href="#aK"/><use transform="matrix(0.010850694444444444,0,0,0.010850694444444444,239.77864583333331,0)" xlink:href="#af"/><use transform="matrix(0.010850694444444444,0,0,0.010850694444444444,256.52126736111114,0)" xlink:href="#aO"/><use transform="matrix(0.010850694444444444,0,0,0.010850694444444444,273.51345486111114,0)" xlink:href="#aF"/><use transform="matrix(0.010850694444444444,0,0,0.010850694444444444,289.55078125000006,0)" xlink:href="#ae"/><use transform="matrix(0.010850694444444444,0,0,0.010850694444444444,302.90798611111114,0)" xlink:href="#aE"/></g><g id="z"><use transform="matrix(0.010850694444444444,0,0,0.010850694444444444,0,0)" xlink:href="#am"/><use transform="matrix(0.010850694444444444,0,0,0.010850694444444444,13.129340277777777,0)" xlink:href="#aA"/><use transform="matrix(0.010850694444444444,0,0,0.010850694444444444,26.453993055555554,0)" xlink:href="#ai"/><use transform="matrix(0.010850694444444444,0,0,0.010850694444444444,40.060763888888886,0)" xlink:href="#ar"/><use transform="matrix(0.010850694444444444,0,0,0.010850694444444444,53.01649305555556,0)" xlink:href="#ad"/><use transform="matrix(0.010850694444444444,0,0,0.010850694444444444,58.984374999999986,0)" xlink:href="#ai"/></g><path d="M481 0L54-1118h197c107 314 236 620 325 951 87-331 217-637 324-951h197L670 0H481" id="aX"/><g id="A"><use transform="matrix(0.010850694444444444,0,0,0.010850694444444444,0,0)" xlink:href="#aX"/><use transform="matrix(0.010850694444444444,0,0,0.010850694444444444,12.38064236111111,0)" xlink:href="#ap"/><use transform="matrix(0.010850694444444444,0,0,0.010850694444444444,24.85894097222222,0)" xlink:href="#aq"/><use transform="matrix(0.010850694444444444,0,0,0.010850694444444444,30.240885416666664,0)" xlink:href="#ah"/><use transform="matrix(0.010850694444444444,0,0,0.010850694444444444,35.62282986111111,0)" xlink:href="#ai"/><use transform="matrix(0.010850694444444444,0,0,0.010850694444444444,49.22960069444444,0)" xlink:href="#ap"/><use transform="matrix(0.010850694444444444,0,0,0.010850694444444444,61.70789930555555,0)" xlink:href="#ak"/><use transform="matrix(0.010850694444444444,0,0,0.010850694444444444,68.76085069444444,0)" xlink:href="#aA"/><use transform="matrix(0.010850694444444444,0,0,0.010850694444444444,82.08550347222221,0)" xlink:href="#al"/><use transform="matrix(0.010850694444444444,0,0,0.010850694444444444,89.57248263888889,0)" xlink:href="#as"/><use transform="matrix(0.010850694444444444,0,0,0.010850694444444444,104.90451388888889,0)" xlink:href="#ai"/><use transform="matrix(0.010850694444444444,0,0,0.010850694444444444,118.51128472222221,0)" xlink:href="#ai"/><use transform="matrix(0.010850694444444444,0,0,0.010850694444444444,132.11805555555554,0)" xlink:href="#al"/><use transform="matrix(0.010850694444444444,0,0,0.010850694444444444,140.1150173611111,0)" xlink:href="#ar"/><use transform="matrix(0.010850694444444444,0,0,0.010850694444444444,153.07074652777774,0)" xlink:href="#aj"/><use transform="matrix(0.010850694444444444,0,0,0.010850694444444444,164.8003472222222,0)" xlink:href="#aj"/></g><g id="B"><use transform="matrix(0.010850694444444444,0,0,0.010850694444444444,0,0)" xlink:href="#ap"/><use transform="matrix(0.010850694444444444,0,0,0.010850694444444444,12.47829861111111,0)" xlink:href="#aG"/><use transform="matrix(0.010850694444444444,0,0,0.010850694444444444,25.17361111111111,0)" xlink:href="#aG"/><use transform="matrix(0.010850694444444444,0,0,0.010850694444444444,37.868923611111114,0)" xlink:href="#aS"/><use transform="matrix(0.010850694444444444,0,0,0.010850694444444444,51.00911458333333,0)" xlink:href="#al"/><use transform="matrix(0.010850694444444444,0,0,0.010850694444444444,59.375,0)" xlink:href="#ap"/><use transform="matrix(0.010850694444444444,0,0,0.010850694444444444,71.85329861111111,0)" xlink:href="#aG"/><use transform="matrix(0.010850694444444444,0,0,0.010850694444444444,84.11458333333334,0)" xlink:href="#ay"/><use transform="matrix(0.010850694444444444,0,0,0.010850694444444444,96.6037326388889,0)" xlink:href="#aE"/><use transform="matrix(0.010850694444444444,0,0,0.010850694444444444,110.8615451388889,0)" xlink:href="#aG"/><use transform="matrix(0.010850694444444444,0,0,0.010850694444444444,123.5568576388889,0)" xlink:href="#aA"/><use transform="matrix(0.010850694444444444,0,0,0.010850694444444444,136.88151041666669,0)" xlink:href="#al"/><use transform="matrix(0.010850694444444444,0,0,0.010850694444444444,144.87847222222223,0)" xlink:href="#ar"/></g><path d="M600 0v-610L52-1490h220l295 481c50 82 90 150 130 243 40-96 80-164 128-243l294-481h219L790-610V0H600" id="aY"/><g id="C"><use transform="matrix(0.010850694444444444,0,0,0.010850694444444444,0,0)" xlink:href="#as"/><use transform="matrix(0.010850694444444444,0,0,0.010850694444444444,15.33203125,0)" xlink:href="#af"/><use transform="matrix(0.010850694444444444,0,0,0.010850694444444444,32.07465277777778,0)" xlink:href="#aY"/><use transform="matrix(0.010850694444444444,0,0,0.010850694444444444,46.408420138888886,0)" xlink:href="#aO"/><use transform="matrix(0.010850694444444444,0,0,0.010850694444444444,63.400607638888886,0)" xlink:href="#af"/><use transform="matrix(0.010850694444444444,0,0,0.010850694444444444,80.14322916666666,0)" xlink:href="#ae"/></g><g id="D"><use transform="matrix(0.010850694444444444,0,0,0.010850694444444444,0,0)" xlink:href="#ap"/><use transform="matrix(0.010850694444444444,0,0,0.010850694444444444,12.47829861111111,0)" xlink:href="#aG"/><use transform="matrix(0.010850694444444444,0,0,0.010850694444444444,25.17361111111111,0)" xlink:href="#ak"/><use transform="matrix(0.010850694444444444,0,0,0.010850694444444444,32.2265625,0)" xlink:href="#aA"/><use transform="matrix(0.010850694444444444,0,0,0.010850694444444444,45.55121527777778,0)" xlink:href="#al"/><use transform="matrix(0.010850694444444444,0,0,0.010850694444444444,54.264322916666664,0)" xlink:href="#ad"/><use transform="matrix(0.010850694444444444,0,0,0.010850694444444444,60.23220486111111,0)" xlink:href="#ai"/></g><g id="E"><use transform="matrix(0.010850694444444444,0,0,0.010850694444444444,0,0)" xlink:href="#ap"/><use transform="matrix(0.010850694444444444,0,0,0.010850694444444444,12.47829861111111,0)" xlink:href="#ax"/><use transform="matrix(0.010850694444444444,0,0,0.010850694444444444,26.085069444444443,0)" xlink:href="#ax"/><use transform="matrix(0.010850694444444444,0,0,0.010850694444444444,39.69184027777777,0)" xlink:href="#af"/><use transform="matrix(0.010850694444444444,0,0,0.010850694444444444,56.43446180555555,0)" xlink:href="#ap"/><use transform="matrix(0.010850694444444444,0,0,0.010850694444444444,68.91276041666666,0)" xlink:href="#az"/><use transform="matrix(0.010850694444444444,0,0,0.010850694444444444,88.37890624999999,0)" xlink:href="#ar"/></g><path fill="#3a414a" d="M128 418v-1536h295v188h14c41-89 129-202 319-202 248 0 453 193 453 575 0 372-197 576-455 576-183 0-275-108-317-198h-9v597H128zm534-640c156 0 240-139 240-336 0-196-83-334-240-334-154 0-241 131-241 334 0 202 88 336 241 336" id="aZ"/><path fill="#3a414a" d="M440 22C227 22 68-92 68-313c0-250 202-322 422-343 195-21 271-24 271-105 0-95-63-149-175-149-116 0-187 57-211 129l-275-46c57-194 237-305 487-305 240 0 474 108 474 379V0H777v-155h-10C713-51 605 22 440 22zm85-211c140 0 238-93 238-211v-121c-37 26-156 42-222 51-111 16-185 59-185 149 0 87 70 132 169 132" id="ba"/><path fill="#3a414a" d="M120 396l69-226c123 42 245 23 254-107l8-60L31-1118h319c87 288 199 559 259 872 72-308 185-583 277-872h315L726 132c-68 181-186 294-410 294-79 0-153-13-196-30" id="bb"/><path fill="#3a414a" d="M572 22C302 22 117-98 78-306l279-48c29 105 101 156 224 156 114 0 185-48 185-115 0-118-228-130-337-155-215-49-322-150-322-317 0-215 187-347 470-347 265 0 424 116 466 298l-266 47c-24-76-87-130-196-130-98 0-174 46-174 113 0 56 38 95 144 117l201 40c216 44 320 143 320 302 0 220-207 367-500 367" id="bc"/><path fill="#3a414a" d="M975 0v231H0V0h975" id="bd"/><path fill="#3a414a" d="M443 0L31-1118h319c90 293 199 572 268 885 66-313 175-593 264-885h315L784 0H443" id="be"/><path fill="#3a414a" d="M128 0v-1118h300V0H128zm150-1264c-91 0-165-68-165-154 0-85 74-154 165-154 90 0 165 69 165 154 0 86-75 154-165 154" id="bf"/><g id="F"><use transform="matrix(0.008680555555555556,0,0,0.008680555555555556,0,0)" xlink:href="#aZ"/><use transform="matrix(0.008680555555555556,0,0,0.008680555555555556,11.380208333333334,0)" xlink:href="#ba"/><use transform="matrix(0.008680555555555556,0,0,0.008680555555555556,21.397569444444443,0)" xlink:href="#bb"/><use transform="matrix(0.008680555555555556,0,0,0.008680555555555556,32.10069444444444,0)" xlink:href="#bc"/><use transform="matrix(0.008680555555555556,0,0,0.008680555555555556,42.05729166666666,0)" xlink:href="#bd"/><use transform="matrix(0.008680555555555556,0,0,0.008680555555555556,49.11458333333333,0)" xlink:href="#be"/><use transform="matrix(0.008680555555555556,0,0,0.008680555555555556,59.77430555555555,0)" xlink:href="#bf"/><use transform="matrix(0.008680555555555556,0,0,0.008680555555555556,64.59201388888889,0)" xlink:href="#ba"/></g><path fill="#3a414a" d="M625 442c-280 0-454-114-503-274l258-72c28 63 97 128 243 128 153 0 246-69 246-216v-206h-23C805-108 717-16 536-16 284-16 81-191 81-561c0-378 208-571 456-571 188 0 280 113 321 202h13v-188h295V-9c0 303-226 451-541 451zm5-686c153 0 240-119 240-319 0-198-86-329-240-329-158 0-241 137-241 329 0 195 85 319 241 319" id="bg"/><path fill="#3a414a" d="M683-1118v229H474v562c0 71 29 104 102 104 23 0 73-7 95-13l43 225C647 9 580 16 520 16 296 16 174-96 174-301v-588H20v-229h154v-266h300v266h209" id="bh"/><path fill="#3a414a" d="M633 22C291 22 81-200 81-553c0-345 210-579 537-579 292 0 525 185 525 567v84H378c7 183 109 277 260 277 105 0 184-46 216-132l272 51C1071-99 893 22 633 22zM380-669h474c-15-146-94-237-233-237-143 0-229 99-241 237" id="bi"/><path fill="#3a414a" d="M628 22C291 22 81-210 81-554c0-346 210-578 547-578 265 0 455 142 497 372l-279 52c-25-116-99-188-215-188-160 0-244 139-244 341 0 200 84 341 244 341 116 0 193-74 217-195l279 51C1085-123 896 22 628 22" id="bj"/><g id="G"><use transform="matrix(0.008680555555555556,0,0,0.008680555555555556,0,0)" xlink:href="#bg"/><use transform="matrix(0.008680555555555556,0,0,0.008680555555555556,11.23263888888889,0)" xlink:href="#ba"/><use transform="matrix(0.008680555555555556,0,0,0.008680555555555556,21.553819444444443,0)" xlink:href="#bh"/><use transform="matrix(0.008680555555555556,0,0,0.008680555555555556,27.890625,0)" xlink:href="#bi"/><use transform="matrix(0.008680555555555556,0,0,0.008680555555555556,38.48090277777778,0)" xlink:href="#bc"/><use transform="matrix(0.008680555555555556,0,0,0.008680555555555556,48.4375,0)" xlink:href="#bd"/><use transform="matrix(0.008680555555555556,0,0,0.008680555555555556,56.90104166666667,0)" xlink:href="#ba"/><use transform="matrix(0.008680555555555556,0,0,0.008680555555555556,67.22222222222223,0)" xlink:href="#bj"/><use transform="matrix(0.008680555555555556,0,0,0.008680555555555556,77.68229166666667,0)" xlink:href="#bj"/><use transform="matrix(0.008680555555555556,0,0,0.008680555555555556,88.14236111111111,0)" xlink:href="#bi"/><use transform="matrix(0.008680555555555556,0,0,0.008680555555555556,98.7326388888889,0)" xlink:href="#bc"/><use transform="matrix(0.008680555555555556,0,0,0.008680555555555556,108.68923611111111,0)" xlink:href="#bc"/></g><path fill="#3a414a" d="M513 14c-232 0-385-159-385-421v-711h300v659c0 139 76 222 202 222 127 0 217-86 217-234v-647h301V0H864l-4-232C797-74 683 14 513 14" id="bk"/><path fill="#3a414a" d="M754 19C571 19 479-89 437-179h-14V0H128v-1490h300v560h9c41-89 129-202 319-202 248 0 453 193 453 575 0 372-197 576-455 576zm-92-241c156 0 240-139 240-336 0-196-83-334-240-334-154 0-241 131-241 334 0 202 88 336 241 336" id="bl"/><path fill="#3a414a" d="M428-1490V0H128v-1490h300" id="bm"/><path fill="#3a414a" d="M428-647V0H128v-1490h294v586c65-146 175-228 341-228 232 0 385 159 385 421V0H847v-659c0-139-76-222-202-222-128 0-217 86-217 234" id="bn"/><path fill="#3a414a" d="M428-647V0H128v-1118h283l4 231c63-156 176-245 348-245 232 0 384 159 384 421V0H847v-659c0-139-76-222-202-222-128 0-217 86-217 234" id="bo"/><path fill="#3a414a" d="M537 19C279 19 81-185 81-557c0-382 206-575 454-575 190 0 278 113 318 202h10v-560h300V0H868v-179h-15C812-89 719 19 537 19zm92-241c153 0 240-134 240-336 0-203-86-334-240-334-158 0-240 138-240 334 0 197 84 336 240 336" id="bp"/><path fill="#3a414a" d="M628 22C291 22 81-210 81-554c0-346 210-578 547-578 336 0 547 232 547 578 0 344-211 576-547 576zm0-236c160 0 242-146 242-341 0-197-82-341-242-341S387-753 387-555c0 195 81 341 241 341" id="bq"/><g id="H"><use transform="matrix(0.008680555555555556,0,0,0.008680555555555556,0,0)" xlink:href="#aZ"/><use transform="matrix(0.008680555555555556,0,0,0.008680555555555556,11.206597222222223,0)" xlink:href="#bk"/><use transform="matrix(0.008680555555555556,0,0,0.008680555555555556,22.274305555555557,0)" xlink:href="#bl"/><use transform="matrix(0.008680555555555556,0,0,0.008680555555555556,33.48090277777778,0)" xlink:href="#bm"/><use transform="matrix(0.008680555555555556,0,0,0.008680555555555556,38.298611111111114,0)" xlink:href="#bf"/><use transform="matrix(0.008680555555555556,0,0,0.008680555555555556,43.11631944444444,0)" xlink:href="#bc"/><use transform="matrix(0.008680555555555556,0,0,0.008680555555555556,53.07291666666667,0)" xlink:href="#bn"/><use transform="matrix(0.008680555555555556,0,0,0.008680555555555556,64.140625,0)" xlink:href="#bi"/><use transform="matrix(0.008680555555555556,0,0,0.008680555555555556,74.73090277777777,0)" xlink:href="#bc"/><use transform="matrix(0.008680555555555556,0,0,0.008680555555555556,84.6875,0)" xlink:href="#bd"/><use transform="matrix(0.008680555555555556,0,0,0.008680555555555556,93.15104166666667,0)" xlink:href="#bc"/><use transform="matrix(0.008680555555555556,0,0,0.008680555555555556,103.1076388888889,0)" xlink:href="#bf"/><use transform="matrix(0.008680555555555556,0,0,0.008680555555555556,107.92534722222223,0)" xlink:href="#bg"/><use transform="matrix(0.008680555555555556,0,0,0.008680555555555556,119.15798611111111,0)" xlink:href="#bo"/><use transform="matrix(0.008680555555555556,0,0,0.008680555555555556,130.22569444444446,0)" xlink:href="#bi"/><use transform="matrix(0.008680555555555556,0,0,0.008680555555555556,140.81597222222223,0)" xlink:href="#bp"/><use transform="matrix(0.008680555555555556,0,0,0.008680555555555556,152.34375,0)" xlink:href="#bd"/><use transform="matrix(0.008680555555555556,0,0,0.008680555555555556,160.80729166666663,0)" xlink:href="#bc"/><use transform="matrix(0.008680555555555556,0,0,0.008680555555555556,170.76388888888889,0)" xlink:href="#bo"/><use transform="matrix(0.008680555555555556,0,0,0.008680555555555556,181.83159722222223,0)" xlink:href="#ba"/><use transform="matrix(0.008680555555555556,0,0,0.008680555555555556,192.1527777777778,0)" xlink:href="#aZ"/><use transform="matrix(0.008680555555555556,0,0,0.008680555555555556,203.359375,0)" xlink:href="#bc"/><use transform="matrix(0.008680555555555556,0,0,0.008680555555555556,213.31597222222223,0)" xlink:href="#bn"/><use transform="matrix(0.008680555555555556,0,0,0.008680555555555556,224.38368055555557,0)" xlink:href="#bq"/><use transform="matrix(0.008680555555555556,0,0,0.008680555555555556,235.28645833333334,0)" xlink:href="#bh"/></g><path fill="#3a414a" d="M128 0v-1118h290v195h12c54-169 184-238 367-200v268c-27-8-86-15-130-15-138 0-239 95-239 234V0H128" id="br"/><path fill="#3a414a" d="M750-1118v229H516V0H217v-889H20v-229h197v-86c0-238 156-356 363-356 94 0 178 20 215 31l-54 226c-25-7-61-15-100-15-123-3-131 84-125 200h234" id="bs"/><path fill="#3a414a" d="M128 0v-1490h300v802h17l366-430h347L740-633 1179 0H826L514-456l-86 97V0H128" id="bt"/><path fill="#3a414a" d="M1163 418H863v-597h-10C812-89 719 19 537 19 279 19 81-185 81-557c0-382 206-575 454-575 190 0 278 113 318 202h15v-188h295V418zM629-222c153 0 240-134 240-336 0-203-86-334-240-334-158 0-240 138-240 334 0 197 84 336 240 336" id="bu"/><g id="I"><use transform="matrix(0.008680555555555556,0,0,0.008680555555555556,0,0)" xlink:href="#be"/><use transform="matrix(0.008680555555555556,0,0,0.008680555555555556,10.338541666666668,0)" xlink:href="#bi"/><use transform="matrix(0.008680555555555556,0,0,0.008680555555555556,20.928819444444446,0)" xlink:href="#br"/><use transform="matrix(0.008680555555555556,0,0,0.008680555555555556,28.29861111111111,0)" xlink:href="#bf"/><use transform="matrix(0.008680555555555556,0,0,0.008680555555555556,33.11631944444445,0)" xlink:href="#bs"/><use transform="matrix(0.008680555555555556,0,0,0.008680555555555556,40.19097222222223,0)" xlink:href="#bb"/><use transform="matrix(0.008680555555555556,0,0,0.008680555555555556,49.487847222222236,0)" xlink:href="#bd"/><use transform="matrix(0.008680555555555556,0,0,0.008680555555555556,57.9513888888889,0)" xlink:href="#bh"/><use transform="matrix(0.008680555555555556,0,0,0.008680555555555556,64.46180555555557,0)" xlink:href="#br"/><use transform="matrix(0.008680555555555556,0,0,0.008680555555555556,71.45833333333334,0)" xlink:href="#ba"/><use transform="matrix(0.008680555555555556,0,0,0.008680555555555556,81.77951388888889,0)" xlink:href="#bj"/><use transform="matrix(0.008680555555555556,0,0,0.008680555555555556,92.23958333333334,0)" xlink:href="#bt"/><use transform="matrix(0.008680555555555556,0,0,0.008680555555555556,102.55208333333334,0)" xlink:href="#bd"/><use transform="matrix(0.008680555555555556,0,0,0.008680555555555556,111.01562500000001,0)" xlink:href="#bu"/><use transform="matrix(0.008680555555555556,0,0,0.008680555555555556,122.22222222222224,0)" xlink:href="#bk"/><use transform="matrix(0.008680555555555556,0,0,0.008680555555555556,133.28993055555557,0)" xlink:href="#bi"/><use transform="matrix(0.008680555555555556,0,0,0.008680555555555556,143.88020833333334,0)" xlink:href="#br"/><use transform="matrix(0.008680555555555556,0,0,0.008680555555555556,151.39756944444446,0)" xlink:href="#bb"/></g><g id="J"><use transform="matrix(0.008680555555555556,0,0,0.008680555555555556,0,0)" xlink:href="#bu"/><use transform="matrix(0.008680555555555556,0,0,0.008680555555555556,11.206597222222223,0)" xlink:href="#bk"/><use transform="matrix(0.008680555555555556,0,0,0.008680555555555556,22.274305555555557,0)" xlink:href="#bi"/><use transform="matrix(0.008680555555555556,0,0,0.008680555555555556,32.864583333333336,0)" xlink:href="#br"/><use transform="matrix(0.008680555555555556,0,0,0.008680555555555556,40.23437500000001,0)" xlink:href="#bf"/><use transform="matrix(0.008680555555555556,0,0,0.008680555555555556,45.05208333333334,0)" xlink:href="#bi"/><use transform="matrix(0.008680555555555556,0,0,0.008680555555555556,55.64236111111112,0)" xlink:href="#bc"/><use transform="matrix(0.008680555555555556,0,0,0.008680555555555556,65.59895833333334,0)" xlink:href="#bd"/><use transform="matrix(0.008680555555555556,0,0,0.008680555555555556,74.66145833333334,0)" xlink:href="#bn"/><use transform="matrix(0.008680555555555556,0,0,0.008680555555555556,85.72916666666667,0)" xlink:href="#bf"/><use transform="matrix(0.008680555555555556,0,0,0.008680555555555556,90.546875,0)" xlink:href="#bc"/><use transform="matrix(0.008680555555555556,0,0,0.008680555555555556,100.50347222222223,0)" xlink:href="#bh"/><use transform="matrix(0.008680555555555556,0,0,0.008680555555555556,106.84027777777779,0)" xlink:href="#bq"/><use transform="matrix(0.008680555555555556,0,0,0.008680555555555556,117.74305555555557,0)" xlink:href="#br"/><use transform="matrix(0.008680555555555556,0,0,0.008680555555555556,125.26041666666667,0)" xlink:href="#bb"/></g></defs></g></svg>